<?xml version="1.0" encoding="UTF-8" standalone="no"?>
<!-- Creator: CorelDRAW -->

<svg
   xmlns:dc="http://purl.org/dc/elements/1.1/"
   xmlns:cc="http://creativecommons.org/ns#"
   xmlns:rdf="http://www.w3.org/1999/02/22-rdf-syntax-ns#"
   xmlns:svg="http://www.w3.org/2000/svg"
   xmlns="http://www.w3.org/2000/svg"
   xmlns:sodipodi="http://sodipodi.sourceforge.net/DTD/sodipodi-0.dtd"
   xmlns:inkscape="http://www.inkscape.org/namespaces/inkscape"
   xml:space="preserve"
   width="61.6479mm"
   height="61.6479mm"
   style="shape-rendering:geometricPrecision; text-rendering:geometricPrecision; image-rendering:optimizeQuality; fill-rule:evenodd; clip-rule:evenodd"
   viewBox="0 0 1.02916 1.02916"
   id="svg2"
   version="1.1"
   inkscape:version="0.47 r22583"
   sodipodi:docname="hicolor_apps_scalable_gxneur.svg"><metadata
   id="metadata19"><rdf:RDF><cc:Work
       rdf:about=""><dc:format>image/svg+xml</dc:format><dc:type
         rdf:resource="http://purl.org/dc/dcmitype/StillImage" /><dc:title></dc:title></cc:Work></rdf:RDF></metadata><sodipodi:namedview
   pagecolor="#ffffff"
   bordercolor="#666666"
   borderopacity="1"
   objecttolerance="10"
   gridtolerance="10"
   guidetolerance="10"
   inkscape:pageopacity="0"
   inkscape:pageshadow="2"
   inkscape:window-width="1024"
   inkscape:window-height="556"
   id="namedview17"
   showgrid="false"
   inkscape:zoom="1.0804009"
   inkscape:cx="109.21872"
   inkscape:cy="107.90791"
   inkscape:window-x="0"
   inkscape:window-y="0"
   inkscape:window-maximized="1"
   inkscape:current-layer="svg2" />
 <defs
   id="defs4"><inkscape:perspective
   sodipodi:type="inkscape:persp3d"
   inkscape:vp_x="0 : 109.21872 : 1"
   inkscape:vp_y="0 : 1000 : 0"
   inkscape:vp_z="218.43744 : 109.21872 : 1"
   inkscape:persp3d-origin="109.21872 : 72.81248 : 1"
   id="perspective21" />
  <style
   type="text/css"
   id="style6">
   
    .fil2 {fill:#E77817}
    .fil0 {fill:white}
    .fil1 {fill:#E77817;fill-rule:nonzero}
   
  </style>
 <filter
   id="filter3029"
   inkscape:menu-tooltip="Make the lightest parts of the object progressively transparent"
   inkscape:menu="Transparency utilities"
   inkscape:label="Light eraser"
   height="1"
   width="1"
   y="0"
   x="0"
   color-interpolation-filters="sRGB"><feColorMatrix
     id="feColorMatrix3031"
     result="result14"
     type="luminanceToAlpha"
     in="SourceGraphic" /><feComposite
     id="feComposite3033"
     in2="result14"
     in="SourceGraphic"
     result="fbSourceGraphic"
     operator="out" /><feBlend
     id="feBlend3035"
     in2="fbSourceGraphic"
     mode="normal"
     result="result15" /></filter></defs>
 <g
   id="Layer_x0020_1"
   style="filter:url(#filter3029)">
  <metadata
   id="CorelCorpID_0Corel-Layer" />
  <rect
   class="fil0"
   width="1.02916"
   height="1.02916"
   id="rect10" />
  <g
   id="_70715968">
   <polygon
   id="_70062248"
   class="fil1"
   points="0.685821,0.713675 0.685821,0.713675 1.00266,0.713675 0.702225,0.341487 0.989339,1.66942e-006 0.672504,1.66942e-006 0.38539,0.341487 " />
   <polygon
   id="_70062176"
   class="fil1"
   points="0.343339,0.713675 0.343339,0.713675 0.026502,0.713675 0.326932,0.341487 0.0398189,0 0.490062,0.158673 0.336356,0.341484 0.490062,0.531904 " />
  </g>
  <path
   class="fil2"
   d="M0.0262215 0.746047l0.976717 0 0 0.280904 -0.976717 0 0 -0.280904zm0.773125 0.225228l0 -0.168968 0.0631824 0 0 0.0295503c0.00699819,-0.0116191 0.0157626,-0.0201064 0.0262315,-0.0254119 0.0104656,-0.00535716 0.0237708,-0.0081167 0.0399141,-0.00832872l0 0.0547485c-0.00283634,-0.000318858 -0.00561091,-0.000582626 -0.00838715,-0.00074289 -0.0027729,-0.000160264 -0.00542226,-0.000212016 -0.00788131,-0.000212016 -0.0100883,0 -0.018412,0.00127209 -0.0250329,0.00381962 -0.0066209,0.00254753 -0.0118545,0.00642057 -0.0158277,0.0117243 -0.00245905,0.00350243 -0.00416185,0.00859415 -0.00523362,0.0151733 -0.00107177,0.0065775 -0.00157593,0.0171866 -0.00157593,0.0319343l0 0.0567134 -0.0653894 0zm-0.0457804 -0.168968l0 0.168968 -0.0643176 0 0 -0.0233434c-0.00788298,0.00944222 -0.0167743,0.0163937 -0.0266739,0.0208493 -0.00990131,0.00445734 -0.0213134,0.00668434 -0.0342414,0.00668434 -0.0221949,0 -0.0389057,-0.00477453 -0.0500658,-0.0143753 -0.0112235,-0.00960248 -0.0168377,-0.0238209 -0.0168377,-0.0426552l0 -0.116128 0.06577 0 0 0.0944856c0,0.0138979 0.00208009,0.0234469 0.00617851,0.0286989 0.00416185,0.00525198 0.0112886,0.00785126 0.0215021,0.00785126 0.0114772,0 0.0198009,-0.00318191 0.0250346,-0.00954906 0.00523362,-0.00636715 0.00788298,-0.0167626 0.00788298,-0.031193l0 -0.0902937 0.0657683 0zm-0.290944 0.115811l0.0631807 0c-0.00586299,0.0185672 -0.0175289,0.0328925 -0.0348057,0.0430776 -0.0173419,0.0101334 -0.0387805,0.0152251 -0.064381,0.0152251 -0.0311513,0 -0.0558052,-0.00795811 -0.0739034,-0.0238726 -0.0180965,-0.0159145 -0.0271781,-0.0375602 -0.0271781,-0.0650404 0,-0.0279577 0.00914339,-0.0501342 0.0273684,-0.0664728 0.0182217,-0.0162868 0.0427504,-0.0244569 0.0737131,-0.0244569 0.0319059,0 0.0569404,0.00827696 0.0751638,0.024881 0.0182233,0.0165523 0.0273651,0.03947 0.0273651,0.0686481 0,0.00270612 0,0.0047762 -6.17684e-005,0.00615347 -6.34378e-005,0.00143236 -0.000188644,0.00259928 -0.00031552,0.00366103l-0.116699 0 0.0538938 -0.0312465c-0.000253751,-0.0108746 -0.00365769,-0.0193636 -0.0102769,-0.0254653 -0.0065608,-0.00610005 -0.0155757,-0.00917845 -0.0270529,-0.00917845 -0.0108445,0 -0.0194838,0.00302498 -0.0259795,0.00901985 -0.0176173,0.0162635 -0.0157326,0.0685379 -0.000567601,0.084192 0.00611674,0.00625864 0.0150715,0.00939046 0.026926,0.00939046 0.00870267,0 0.0159546,-0.0015392 0.021629,-0.00466769 0.00567601,-0.00313182 0.00964756,-0.00774776 0.0119814,-0.0138478zm-0.362136 0.0531575l0 -0.168968 0.0642525 0 0 0.0231832c0.00693809,-0.0092302 0.015387,-0.0161266 0.0253501,-0.0206357 0.00996474,-0.00451076 0.0218794,-0.00673776 0.035627,-0.00673776 0.0235204,0 0.0405468,0.00493479 0.0510758,0.0148528 0.0105307,0.00986792 0.0158277,0.0260496 0.0158277,0.048383l0 0.109923 -0.0657683 0 0 -0.0850417c0,-0.0198928 -0.00195489,-0.0325736 -0.00592643,-0.0379842 -0.00390977,-0.005464 -0.0112252,-0.00817012 -0.0218176,-0.00817012 -0.0115407,0 -0.0199913,0.00323533 -0.0252866,0.00970932 -0.00529706,0.00647233 -0.00794475,0.016816 -0.00794475,0.0310344l0 0.0904523 -0.0653894 0z"
   id="path15" />
 </g>
<path
   style="fill:#e77817;fill-opacity:1"
   d="M 114.56724,112.23356 C 97.320679,90.873493 83.209855,73.005192 83.209855,72.526222 c 0,-0.478972 13.501608,-16.948288 30.003575,-36.598483 L 143.217,0.20011194 l 32.81796,0 c 31.09257,0 32.75118,0.0849509 31.54766,1.61580076 -0.69867,0.8886903 -14.32598,17.1601543 -30.28292,36.1588093 -26.24398,31.246617 -28.88401,34.69175 -27.66504,36.101681 1.3071,1.511868 59.32364,73.513107 61.10702,75.836657 0.70652,0.92053 -5.82596,1.15698 -31.96453,1.15698 l -32.85252,0 -31.35739,-38.83648 z"
   id="path3039"
   transform="scale(0.00471146,0.00471146)" /><path
   style="fill:#e77817;fill-opacity:1"
   d="M 9.4522289,147.5991 C 10.969388,145.69009 25.164023,128.09246 40.99586,108.49325 56.827698,88.894042 69.678667,72.57052 69.553569,72.218754 69.428472,71.866989 56.296583,56.087775 40.371594,37.153833 24.446605,18.219892 11.613238,2.5323153 11.853,2.2925527 c 0.338712,-0.3387118 90.21591,30.8551583 90.97712,31.5756213 0.10067,0.09528 -7.093805,8.818968 -15.987725,19.385969 l -16.170761,19.21273 15.446867,19.170166 c 8.495777,10.543591 15.831029,19.673511 16.300549,20.288701 0.59222,0.77597 -3.860614,6.94158 -14.538994,20.13142 l -15.392678,19.01288 -32.89681,0 -32.8968106,0 2.7584715,-3.47094 0,0 z"
   id="path3041"
   transform="scale(0.00471146,0.00471146)" /><path
   style="fill:#e77817;fill-opacity:1"
   d="m 5.9237272,188.09333 0,-29.61863 103.2024328,0 103.20244,0 0,29.61863 0,29.61864 -103.20244,0 -103.2024328,0 0,-29.61864 z m 94.0352538,18.07422 c 4.559019,-1.35388 9.202879,-5.22799 11.402639,-9.51258 1.06334,-2.07112 1.03043,-2.08256 -5.99063,-2.08256 -5.658325,0 -7.527021,0.36749 -9.413209,1.85116 -3.221372,2.53394 -7.226897,2.36564 -10.013251,-0.42071 -1.872279,-1.87228 -2.271884,-3.1854 -2.271884,-7.46551 0,-7.95117 1.848818,-10.59708 7.404659,-10.59708 3.804537,0 4.870261,0.58954 6.436074,3.5603 1.303942,2.47393 1.550499,2.19975 -5.740946,6.38418 -2.417566,1.3874 -4.395999,2.83492 -4.396516,3.21673 -5.17e-4,0.3818 5.621971,0.69418 12.494421,0.69418 l 12.495362,0 0,-4.48233 c 0,-6.36846 -3.17744,-11.94023 -8.79231,-15.41769 -4.128154,-2.55669 -5.155134,-2.77675 -12.958876,-2.77675 -7.803741,0 -8.83072,0.22006 -12.958876,2.77675 -5.873189,3.63745 -8.79231,8.99844 -8.79231,16.14715 0,5.98391 2.749826,12.33377 6.532599,15.08499 5.954031,4.33039 16.021663,5.57629 24.563054,3.03977 l 0,0 z m 41.405699,-0.82506 c 4.05134,-2.05105 4.32198,-2.08003 4.32198,-0.46279 0,1.53954 0.79715,1.72528 7.40466,1.72528 l 7.40466,0 0,-18.51165 0,-18.51164 -7.40466,0 -7.40466,0 0,11.16783 c 0,13.76084 -1.11892,16.55388 -6.64435,16.58546 -4.78522,0.0274 -5.38822,-1.68757 -5.38822,-15.32405 l 0,-12.42924 -7.4656,0 -7.46561,0 0.29234,15.71629 c 0.2893,15.55248 0.31765,15.74157 2.72021,18.14172 4.38886,4.38447 13.06588,5.22559 19.62925,1.90279 l 0,0 z M 35.542363,195.16002 c 0,-10.17704 0.212521,-11.71513 1.918343,-13.88373 1.227789,-1.56088 2.810424,-2.43368 4.396517,-2.42461 4.97057,0.0284 5.230647,0.71929 5.556274,14.75959 l 0.301355,12.99371 7.3347,0 7.3347,0 -0.0014,-14.11513 c -0.002,-19.98118 -1.918875,-23.07996 -14.349075,-23.1969 -4.283598,-0.0403 -6.598198,0.45157 -9.116332,1.93731 -3.297642,1.94566 -3.375043,1.94959 -3.375043,0.17137 0,-1.65788 -0.65939,-1.81994 -7.404659,-1.81994 l -7.404659,0 0,18.51164 0,18.51165 7.404659,0 7.404659,0 0,-11.44496 z m 148.148357,4.73449 c 0.0778,-9.4623 1.24087,-15.58522 3.23783,-17.04544 0.9288,-0.67915 3.69167,-1.23481 6.13972,-1.23481 l 4.45101,0 0,-6.57811 c 0,-5.6181 -0.21366,-6.49611 -1.46408,-6.01628 -0.80524,0.309 -2.41316,0.56182 -3.57316,0.56182 -1.16001,0 -3.62501,1.02872 -5.47779,2.28606 l -3.36871,2.28606 0,-2.28606 c 0,-2.24053 -0.1475,-2.28606 -7.40466,-2.28606 l -7.40466,0 0,18.51164 0,18.51165 7.40466,0 7.40466,0 0.0552,-6.71047 1e-5,0 z"
   id="path3043"
   transform="scale(0.00471146,0.00471146)" /></svg>