/* XPM */
static char * Belarusian_xpm[] = {
"27 18 300 2",
"  	c None",
". 	c #000000",
"+ 	c #E1E1E1",
"@ 	c #E8E8E8",
"# 	c #F50000",
"$ 	c #FFFFFF",
"% 	c #FAFAFA",
"& 	c #FF3333",
"* 	c #FF5050",
"= 	c #FF6666",
"- 	c #FF7576",
"; 	c #FF7F80",
"> 	c #FE7979",
", 	c #EF5555",
"' 	c #E52E2E",
") 	c #E21717",
"! 	c #E70808",
"~ 	c #F30101",
"{ 	c #FC0000",
"] 	c #FE0101",
"^ 	c #FF0E0E",
"/ 	c #FF2929",
"( 	c #FF4747",
"_ 	c #FF5C5C",
": 	c #FF6D6D",
"< 	c #FF7A7A",
"[ 	c #F27374",
"} 	c #E9E9E9",
"| 	c #F70000",
"1 	c #FBFBFB",
"2 	c #FF3838",
"3 	c #FF5353",
"4 	c #FF6868",
"5 	c #FF7878",
"6 	c #FF8080",
"7 	c #FD7A7A",
"8 	c #EE5555",
"9 	c #E42B2B",
"0 	c #E21212",
"a 	c #E90505",
"b 	c #F30000",
"c 	c #FD0000",
"d 	c #FF0101",
"e 	c #FF1111",
"f 	c #FF2D2D",
"g 	c #FF4949",
"h 	c #FF5E5E",
"i 	c #FF6F6F",
"j 	c #FF7C7C",
"k 	c #F07272",
"l 	c #EB0505",
"m 	c #F8F8F8",
"n 	c #FF0000",
"o 	c #FDFDFD",
"p 	c #FF3E3E",
"q 	c #FF5656",
"r 	c #FF6A6A",
"s 	c #FF7979",
"t 	c #FC7677",
"u 	c #EC4F4F",
"v 	c #E52627",
"w 	c #E31010",
"x 	c #EB0405",
"y 	c #FF0202",
"z 	c #FF1414",
"A 	c #FF3131",
"B 	c #FF4C4C",
"C 	c #FF6060",
"D 	c #FF7171",
"E 	c #FE7C7D",
"F 	c #ED6F6F",
"G 	c #E2E2E2",
"H 	c #ED0404",
"I 	c #FE0000",
"J 	c #FEFEFE",
"K 	c #FF4242",
"L 	c #FF5959",
"M 	c #FF7B7B",
"N 	c #FF8181",
"O 	c #FA7373",
"P 	c #EB4B4B",
"Q 	c #E42323",
"R 	c #E40E0E",
"S 	c #EC0404",
"T 	c #F60000",
"U 	c #FF0303",
"V 	c #FF1717",
"W 	c #FF3535",
"X 	c #FF4E4E",
"Y 	c #FF6363",
"Z 	c #FF7373",
"` 	c #FD7C7C",
" .	c #EB6C6C",
"..	c #EEEEEE",
"+.	c #FB0000",
"@.	c #FF4545",
"#.	c #F86E6E",
"$.	c #E94545",
"%.	c #E32020",
"&.	c #E40C0C",
"*.	c #ED0303",
"=.	c #FF0505",
"-.	c #FF1A1A",
";.	c #FF3939",
">.	c #FF5151",
",.	c #FF6565",
"'.	c #FF7575",
").	c #FB7A7A",
"!.	c #E86868",
"~.	c #E4E4E4",
"{.	c #F0F0F0",
"].	c #FCFCFC",
"^.	c #FF4848",
"/.	c #FF7D7D",
"(.	c #F56A6A",
"_.	c #E84040",
":.	c #E21C1D",
"<.	c #E60B0B",
"[.	c #EE0202",
"}.	c #F90000",
"|.	c #FF0707",
"1.	c #FF1E1E",
"2.	c #FF5454",
"3.	c #FF6767",
"4.	c #FF7676",
"5.	c #FA7979",
"6.	c #E66464",
"7.	c #E5E5E5",
"8.	c #F1F1F1",
"9.	c #FF4B4B",
"0.	c #FF6161",
"a.	c #FF7E7E",
"b.	c #FF7E7F",
"c.	c #F46565",
"d.	c #E73B3B",
"e.	c #E21A1A",
"f.	c #E60909",
"g.	c #F00202",
"h.	c #FA0000",
"i.	c #FF0909",
"j.	c #FF2121",
"k.	c #FF4141",
"l.	c #FF5757",
"m.	c #FF6969",
"n.	c #F77878",
"o.	c #E35F5F",
"p.	c #E6E6E7",
"q.	c #F40101",
"r.	c #FA0404",
"s.	c #FF4D4D",
"t.	c #FF7474",
"u.	c #FE7C7C",
"v.	c #F25E5F",
"w.	c #E63535",
"x.	c #E31717",
"y.	c #F10101",
"z.	c #FF0B0B",
"A.	c #FF2525",
"B.	c #FF4444",
"C.	c #FF6B6B",
"D.	c #F47675",
"E.	c #E15959",
"F.	c #FA0808",
"G.	c #F15959",
"H.	c #E63232",
"I.	c #E31515",
"J.	c #E80707",
"K.	c #F20101",
"L.	c #F27373",
"M.	c #DF5354",
"N.	c #EAE9EA",
"O.	c #F6F6F6",
"P.	c #FF7677",
"Q.	c #FE7E7E",
"R.	c #FB7374",
"S.	c #F05454",
"T.	c #E62E2F",
"U.	c #E41514",
"V.	c #EA0606",
"W.	c #FE6F6E",
"X.	c #FD7A78",
"Y.	c #EF6D6D",
"Z.	c #DF4D4E",
"`.	c #EBEBEB",
" +	c #FEFFFF",
".+	c #FE7878",
"++	c #FE7C7B",
"@+	c #F96E6F",
"#+	c #EE4F51",
"$+	c #E62C2C",
"%+	c #E41414",
"&+	c #EB0606",
"*+	c #F50100",
"=+	c #FE7070",
"-+	c #FA7677",
";+	c #EC6869",
">+	c #E04A4A",
",+	c #ECEDED",
"'+	c #FFFEFE",
")+	c #58BC58",
"!+	c #6BC36B",
"~+	c #79C979",
"{+	c #7AC87A",
"]+	c #6BBF6A",
"^+	c #4CAC4B",
"/+	c #289A29",
"(+	c #129112",
"_+	c #059005",
":+	c #009300",
"<+	c #009700",
"[+	c #039A04",
"}+	c #17A217",
"|+	c #35AE35",
"1+	c #4EB84E",
"2+	c #62C062",
"3+	c #70C570",
"4+	c #73C373",
"5+	c #62B463",
"6+	c #47A347",
"7+	c #FF1D1D",
"8+	c #5CBD5C",
"9+	c #6DC46D",
"0+	c #79C978",
"a+	c #79C878",
"b+	c #68BC67",
"c+	c #46AA47",
"d+	c #269926",
"e+	c #109110",
"f+	c #009400",
"g+	c #009800",
"h+	c #059B05",
"i+	c #1AA31A",
"j+	c #39AF39",
"k+	c #50B950",
"l+	c #64C164",
"m+	c #70C470",
"n+	c #71C06F",
"o+	c #5EB25E",
"p+	c #43A243",
"q+	c #EFEFEF",
"r+	c #FE2121",
"s+	c #5EBE5E",
"t+	c #6FC56F",
"u+	c #7AC979",
"v+	c #77C777",
"w+	c #63BA63",
"x+	c #41A741",
"y+	c #239823",
"z+	c #0E900E",
"A+	c #049104",
"B+	c #009500",
"C+	c #009900",
"D+	c #079B07",
"E+	c #1EA51E",
"F+	c #3DB13D",
"G+	c #54BA54",
"H+	c #66C166",
"I+	c #6EBF6E",
"J+	c #5AB05A",
"K+	c #3FA03F",
"L+	c #FB0404",
"M+	c #61BF61",
"N+	c #72C672",
"O+	c #7BCA7B",
"P+	c #76C677",
"Q+	c #60B860",
"R+	c #3DA53D",
"S+	c #1F961F",
"T+	c #0D900D",
"U+	c #039103",
"V+	c #009600",
"W+	c #099C09",
"X+	c #23A723",
"Y+	c #44B444",
"Z+	c #59BC59",
"`+	c #68C268",
" @	c #70C471",
".@	c #6CBD6D",
"+@	c #57AD57",
"@@	c #3B9D3B",
"#@	c #F2F3F2",
"$@	c #FA0606",
"%@	c #67C266",
"&@	c #74C774",
"*@	c #79C97A",
"=@	c #6CC06D",
"-@	c #4EB04F",
";@	c #319F31",
">@	c #1A941A",
",@	c #0A900B",
"'@	c #029102",
")@	c #0B9D0B",
"!@	c #2DAB2D",
"~@	c #50B850",
"{@	c #62BF61",
"]@	c #6AC36B",
"^@	c #72C271",
"/@	c #67BA67",
"(@	c #4EA850",
"_@	c #329832",
". . . . . . . . . . . . . . . . . . . . . . . . . . . ",
". + @ # $ % & * = - ; > , ' ) ! ~ { ] ^ / ( _ : < [ . ",
". + } | $ 1 2 3 4 5 6 7 8 9 0 a b c d e f g h i j k . ",
". + l m n o p q r s 6 t u v w x # c y z A B C D E F . ",
". G H % I J K L : M N O P Q R S T I U V W X Y Z `  .. ",
". G ..+.o $ @._ i j N #.$.%.&.*.| I =.-.;.>.,.'.).!.. ",
". ~.{.{ ].$ ^.h D /.6 (._.:.<.[.}.n |.1.p 2.3.4.5.6.. ",
". 7.8.o % $ 9.0.Z a.b.c.d.e.f.g.h.n i.j.k.l.m.5 n.o.. ",
". p.q.J r.$ s.Y t.a.u.v.w.x.! y.+.n z.A.B.L C.s D.E.. ",
". @ # $ F.$ * = '.b.7 G.H.I.J.K.{ I ^ / ( _ : s L.M.. ",
". N.O.J 1 $ 3 4 P.Q.R.S.T.U.V.~ { d e f g h W.X.Y.Z.. ",
". `.m n o  +q r .+++@+#+$+%+&+*+c ] z A B C =+-+;+>+. ",
". ,+m { J '+)+!+~+{+]+^+/+(+_+:+<+[+}+|+1+2+3+4+5+6+. ",
". ..}.].7+$ 8+9+0+a+b+c+d+e+_+f+g+h+i+j+k+l+m+n+o+p+. ",
". q+}.1 r+$ s+t+u+v+w+x+y+z+A+B+C+D+E+F+G+H+m+I+J+K+. ",
". {.% L+J $ M+N+O+P+Q+R+S+T+U+V+C+W+X+Y+Z+`+ @.@+@@@. ",
". #@].$@J $ %@&@*@=@-@;@>@,@'@B+C+)@!@~@{@]@^@/@(@_@. ",
". . . . . . . . . . . . . . . . . . . . . . . . . . . "};
