/* XPM */
static char * English_xpm[] = {
"27 18 274 2",
"  	c None",
". 	c #000000",
"+ 	c #CE858E",
"@ 	c #E8E8E8",
"# 	c #F5F5F5",
"$ 	c #FFFFFF",
"% 	c #8595BE",
"& 	c #334F97",
"* 	c #5068A5",
"= 	c #667BB1",
"- 	c #7688B9",
"; 	c #8091BE",
"> 	c #FEFDFD",
", 	c #D2626F",
"' 	c #C33D4D",
") 	c #BC2739",
"! 	c #E7E7E7",
"~ 	c #012378",
"{ 	c #00237B",
"] 	c #01257D",
"^ 	c #0E3084",
"/ 	c #294791",
"( 	c #A5B1D1",
"_ 	c #F1C0C6",
": 	c #DA7D8A",
"< 	c #CE848D",
"[ 	c #BE182C",
"} 	c #DF848E",
"| 	c #FBFBFB",
"1 	c #ABB6D4",
"2 	c #687DB2",
"3 	c #788BBA",
"4 	c #FDFDFD",
"5 	c #D1616F",
"6 	c #C1394A",
"7 	c #BB2235",
"8 	c #E9E9E9",
"9 	c #002378",
"0 	c #00237C",
"a 	c #01247D",
"b 	c #8B9BC4",
"c 	c #EFB3BA",
"d 	c #E37A87",
"e 	c #F2C1C7",
"f 	c #F0F0F0",
"g 	c #E1E1E1",
"h 	c #EBEBEB",
"i 	c #E0848F",
"j 	c #CF142B",
"k 	c #E68F99",
"l 	c #BDC6DD",
"m 	c #FCFBFC",
"n 	c #CF5C6A",
"o 	c #C13547",
"p 	c #BB2134",
"q 	c #EBEAEB",
"r 	c #8192BE",
"s 	c #EA9EA7",
"t 	c #DD5A6A",
"u 	c #EFB4BB",
"v 	c #FEFEFF",
"w 	c #EDEDED",
"x 	c #133079",
"y 	c #7B8BB3",
"z 	c #FAFAFA",
"A 	c #FEFEFE",
"B 	c #E8939D",
"C 	c #DB5061",
"D 	c #EEB1B8",
"E 	c #CD5766",
"F 	c #BF3243",
"G 	c #BC1F32",
"H 	c #ECECEC",
"I 	c #F6F6F6",
"J 	c #E68994",
"K 	c #D3293E",
"L 	c #EBA0A9",
"M 	c #BEC7DD",
"N 	c #6C7EAA",
"O 	c #102E77",
"P 	c #032476",
"Q 	c #8293BE",
"R 	c #EFB2B9",
"S 	c #F8F8F8",
"T 	c #CA5261",
"U 	c #BE2F41",
"V 	c #BC1D31",
"W 	c #CE132A",
"X 	c #E68A95",
"Y 	c #B4BED8",
"Z 	c #7588B8",
"` 	c #7A8CB9",
" .	c #687AA7",
"..	c #E4E4E4",
"+.	c #FCFCFC",
"@.	c #F5F6F6",
"#.	c #C84D5C",
"$.	c #BD2C3E",
"%.	c #BC1C2F",
"&.	c #EEEEEE",
"*.	c #F9F9F9",
"=.	c #FAF9F9",
"-.	c #E6E6E6",
";.	c #BC1D30",
">.	c #C4142A",
",.	c #CD132A",
"'.	c #CC162C",
").	c #D6374B",
"!.	c #DD5969",
"~.	c #E16D7B",
"{.	c #E47D8A",
"].	c #E68893",
"^.	c #E68894",
"/.	c #D9707D",
"(.	c #C64858",
"_.	c #BD2A3C",
":.	c #BD1A2F",
"<.	c #C3142A",
"[.	c #CB132A",
"}.	c #D01C32",
"|.	c #D53246",
"1.	c #DB4F61",
"2.	c #DF6473",
"3.	c #E27482",
"4.	c #E5828E",
"5.	c #DF828D",
"6.	c #CA6975",
"7.	c #BD1B2F",
"8.	c #C6142A",
"9.	c #CC182E",
"0.	c #D73D50",
"a.	c #DD5A6B",
"b.	c #E16F7D",
"c.	c #E47E8B",
"d.	c #E68691",
"e.	c #D76A78",
"f.	c #C54353",
"g.	c #BD192E",
"h.	c #D11E34",
"i.	c #D53649",
"j.	c #DB5263",
"k.	c #DF6674",
"l.	c #E37683",
"m.	c #E5838F",
"n.	c #DD808B",
"o.	c #C86470",
"p.	c #BE192E",
"q.	c #C7142A",
"r.	c #CD1B31",
"s.	c #D84355",
"t.	c #DE5D6D",
"u.	c #E2727F",
"v.	c #E57F8C",
"w.	c #E48490",
"x.	c #D46573",
"y.	c #C44051",
"z.	c #BD2538",
"A.	c #BE192D",
"B.	c #C5142A",
"C.	c #CC132A",
"D.	c #D12036",
"E.	c #D6394D",
"F.	c #DC5566",
"G.	c #E06877",
"H.	c #E37885",
"I.	c #DA7D88",
"J.	c #C55E6B",
"K.	c #BF182D",
"L.	c #C8142A",
"M.	c #CE1F35",
"N.	c #D94759",
"O.	c #DE6070",
"P.	c #E27381",
"Q.	c #E5818D",
"R.	c #E17E8B",
"S.	c #D2606E",
"T.	c #C43D4E",
"U.	c #BD2537",
"V.	c #CF152C",
"W.	c #D22339",
"X.	c #DC5767",
"Y.	c #E06A79",
"Z.	c #E37A86",
"`.	c #E4848E",
" +	c #D77883",
".+	c #C35866",
"++	c #FEFFFF",
"@+	c #FEFEFD",
"#+	c #F9F8F9",
"$+	c #EEEDEF",
"%+	c #C33A4C",
"&+	c #BD2437",
"*+	c #C0182D",
"=+	c #F5F5F4",
"-+	c #FAFAFB",
";+	c #ECECED",
">+	c #E0E0E0",
",+	c #042576",
"'+	c #00237A",
")+	c #00247C",
"!+	c #8E9DC5",
"~+	c #FFFEFE",
"{+	c #EAB5BB",
"]+	c #EEEDED",
"^+	c #C33749",
"/+	c #BE2235",
"(+	c #C1172C",
"_+	c #B9C2DB",
":+	c #7386B4",
"<+	c #6275A6",
"[+	c #475D92",
"}+	c #032477",
"|+	c #8091BC",
"1+	c #F1C0C5",
"2+	c #FDFDFC",
"3+	c #F7F5F6",
"4+	c #C23546",
"5+	c #BE2134",
"6+	c #F7F7F7",
"7+	c #EBA2AB",
"8+	c #EFB6BD",
"9+	c #F7F6F5",
"0+	c #A6AFC8",
"a+	c #435A90",
"b+	c #EFEFEF",
"c+	c #E997A1",
"d+	c #FFFFFE",
"e+	c #BBC5DB",
"f+	c #6377AB",
"g+	c #C13244",
"h+	c #BE1F33",
"i+	c #C3162B",
"j+	c #00247D",
"k+	c #8696C1",
"l+	c #F0B7BE",
"m+	c #E27B87",
"n+	c #E7B6BB",
"o+	c #DFE0DF",
"p+	c #E28690",
"q+	c #CC172D",
"r+	c #E99AA3",
"s+	c #BAC3DC",
"t+	c #7B8EBB",
"u+	c #7689B8",
"v+	c #6074A8",
"w+	c #EAEAEA",
"x+	c #C02F41",
"y+	c #BE1E32",
"z+	c #092B81",
"A+	c #23428E",
"B+	c #A4B0D0",
"C+	c #FBFBFC",
"D+	c #E6B4BB",
"E+	c #CC6270",
"F+	c #CE9299",
"G+	c #E38691",
"H+	c #AAB6D4",
"I+	c #677CB1",
"J+	c #7487B8",
"K+	c #798CBA",
"L+	c #6C80B1",
"M+	c #4E669E",
"N+	c #BF2A3C",
"O+	c #BE1C30",
"P+	c #C4152B",
"Q+	c #EDEFF3",
"R+	c #0B2E83",
"S+	c #2D4A93",
"T+	c #6277AE",
"U+	c #B5C0D9",
"V+	c #FCF9FB",
"W+	c #F0F1F0",
"X+	c #E3E4E5",
"Y+	c #CC8D94",
". . . . . . . . . . . . . . . . . . . . . . . . . . . ",
". + @ # $ % & * = - ; > , ' ) ! ~ { ] ^ / ( $ $ _ : . ",
". < [ } $ | $ 1 2 3 ; 4 5 6 7 8 9 0 a b $ $ c d e f . ",
". g h i j k $ $ $ l ; m n o p q 9 r $ $ s t u $ v w . ",
". x y z A B C D $ $ $ z E F G H I A J K L $ $ $ M N . ",
". O P { Q $ $ R d e $ S T U V w } W X $ $ $ Y Z `  .. ",
". ..f +.+.$ $ $ $ $ $ @.#.$.%.&.*.$ $ $ $ $ $ $ =.-.. ",
". ;.>.,.'.).!.~.{.].^./.(._.:.<.[.j }.|.1.2.3.4.5.6.. ",
". 7.8.W 9.0.a.b.c.].d.e.f.) g.>.[.j h.i.j.k.l.m.n.o.. ",
". p.q.j r.s.t.u.v.^.w.x.y.z.A.B.C.j D.E.F.G.H.m.I.J.. ",
". K.L.j M.N.O.P.Q.^.R.S.T.U.K.B.C.V.W.0.X.Y.Z.`. +.+. ",
". h S $ 4 ++$ $ ++@+#+$+%+&+*+=+4 A $ $ $ $ A -+;+>+. ",
". ,+'+)+!+~+$ $ _ w.{+]+^+/+(+# 4 v K L $ $ _+:+<+[+. ",
". }+|++.~+$ R H.1+2+3+;+4+5+(+6+A $ $ 7+t.8+4 9+0+a+. ",
". b+*.| c+F.c $ d+e+f+h g+h+i+S j+k+$ $ $ l+m+n+8 o+. ",
". f p+q+r+$ $ s+t+u+v+w+x+y+i+z j+z+A+B+$ A C+D+E+F+. ",
". B.G+z A H+I+J+K+L+M+@ N+O+P+Q+j+R+S+* T+U+V+W+X+Y+. ",
". . . . . . . . . . . . . . . . . . . . . . . . . . . "};
