/* XPM */
static char * French_xpm[] = {
"27 18 252 2",
"  	c None",
". 	c #000000",
"+ 	c #263288",
"@ 	c #122083",
"# 	c #0C1B87",
"$ 	c #0C1C8C",
"% 	c #14238D",
"& 	c #3C49A3",
"* 	c #5863B0",
"= 	c #6D76BA",
"- 	c #FFFEFF",
"; 	c #FEFDFD",
"> 	c #EFEFEF",
", 	c #E5E5E5",
"' 	c #E2E2E2",
") 	c #E7E7E7",
"! 	c #F3F3F3",
"~ 	c #FCFCFC",
"{ 	c #EF2C2E",
"] 	c #EF3638",
"^ 	c #F14D4E",
"/ 	c #F36667",
"( 	c #F47778",
"_ 	c #F58586",
": 	c #F69091",
"< 	c #EA898B",
"[ 	c #232F87",
"} 	c #111F83",
"| 	c #0C1B88",
"1 	c #17268F",
"2 	c #414DA5",
"3 	c #5B65B1",
"4 	c #6F78BA",
"5 	c #FFFFFF",
"6 	c #FDFDFD",
"7 	c #EEEEEE",
"8 	c #E4E5E5",
"9 	c #E9E9E9",
"0 	c #EF2B2D",
"a 	c #F0393B",
"b 	c #F15052",
"c 	c #F36769",
"d 	c #F4797A",
"e 	c #F58788",
"f 	c #F69293",
"g 	c #E88788",
"h 	c #202C86",
"i 	c #101E83",
"j 	c #1D2B93",
"k 	c #4753A7",
"l 	c #5D68B2",
"m 	c #717ABB",
"n 	c #FCFBFC",
"o 	c #ECECEC",
"p 	c #E5E4E5",
"q 	c #E3E3E3",
"r 	c #EBEAEB",
"s 	c #F5F5F5",
"t 	c #F03B3D",
"u 	c #F25355",
"v 	c #F36A6B",
"w 	c #F57A7C",
"x 	c #F6888A",
"y 	c #E58586",
"z 	c #1D2A85",
"A 	c #0F1D84",
"B 	c #0B1B89",
"C 	c #0C1B8B",
"D 	c #233196",
"E 	c #4A56A9",
"F 	c #606BB4",
"G 	c #737DBD",
"H 	c #FAFAFA",
"I 	c #EBEBEB",
"J 	c #E4E4E4",
"K 	c #F6F6F6",
"L 	c #FEFEFE",
"M 	c #EF2D2F",
"N 	c #F03E3F",
"O 	c #F25758",
"P 	c #F36B6D",
"Q 	c #F57D7E",
"R 	c #F68A8B",
"S 	c #F59293",
"T 	c #E38182",
"U 	c #1A2884",
"V 	c #0E1D84",
"W 	c #0C1C8B",
"X 	c #283699",
"Y 	c #4D59AB",
"Z 	c #636DB5",
"` 	c #757EBE",
" .	c #F8F8F8",
"..	c #EDEDED",
"+.	c #F7F7F7",
"@.	c #EF2F31",
"#.	c #F04042",
"$.	c #F25A5B",
"%.	c #F46E6F",
"&.	c #F57E80",
"*.	c #F68C8D",
"=.	c #F39091",
"-.	c #E07E7F",
";.	c #182583",
">.	c #0D1C85",
",.	c #0B1B8A",
"'.	c #0C1C8A",
").	c #2C3A9B",
"!.	c #505CAC",
"~.	c #656FB6",
"{.	c #7780BE",
"].	c #F5F6F6",
"^.	c #E8E8E8",
"/.	c #E2E2E3",
"(.	c #E6E6E6",
"_.	c #F9F9F9",
":.	c #EF3032",
"<.	c #F04345",
"[.	c #F25E60",
"}.	c #F47072",
"|.	c #F58081",
"1.	c #F68D8E",
"2.	c #F18F90",
"3.	c #DD797A",
"4.	c #162483",
"5.	c #0E1E8A",
"6.	c #313E9D",
"7.	c #535EAD",
"8.	c #6872B7",
"9.	c #7982BF",
"0.	c #F4F4F4",
"a.	c #F0F0F0",
"b.	c #EF3234",
"c.	c #F14648",
"d.	c #F36162",
"e.	c #F47374",
"f.	c #F58283",
"g.	c #F68E8F",
"h.	c #EF8D8E",
"i.	c #DB7576",
"j.	c #142283",
"k.	c #0C1B86",
"l.	c #0B1B8B",
"m.	c #101F8B",
"n.	c #3644A0",
"o.	c #5560AE",
"p.	c #6A74B8",
"q.	c #7A83C0",
"r.	c #F2F1F2",
"s.	c #E3E2E2",
"t.	c #F1F1F1",
"u.	c #FBFBFB",
"v.	c #EF3436",
"w.	c #F1494B",
"x.	c #F36365",
"y.	c #F47476",
"z.	c #F58385",
"A.	c #F68F90",
"B.	c #EC8B8C",
"C.	c #D97071",
"D.	c #7B84C0",
"E.	c #F1F0F0",
"F.	c #F2F2F2",
"G.	c #EA8889",
"H.	c #D76B6D",
"I.	c #182790",
"J.	c #7D85C1",
"K.	c #FBFAFB",
"L.	c #F0EFEF",
"M.	c #E6E6E7",
"N.	c #E4E4E3",
"O.	c #EAEAEA",
"P.	c #FFFEFE",
"Q.	c #F58787",
"R.	c #F4908F",
"S.	c #E78384",
"T.	c #D66567",
"U.	c #101F84",
"V.	c #1E2C93",
"W.	c #4552A7",
"X.	c #7D86C2",
"Y.	c #FEFEFD",
"Z.	c #F9F8F9",
"`.	c #EEEDEF",
" +	c #F5F5F4",
".+	c #F58889",
"++	c #F28C8E",
"@+	c #E47E80",
"#+	c #D66364",
"$+	c #0F1E84",
"%+	c #4955A9",
"&+	c #5F6AB3",
"*+	c #717BBC",
"=+	c #7F87C2",
"-+	c #F8F7F7",
";+	c #EEEDED",
">+	c #FEFEFF",
",+	c #F57C7D",
"'+	c #F08A8A",
")+	c #E2797B",
"!+	c #D66162",
"~+	c #0C1B89",
"{+	c #0D1C8B",
"]+	c #4B57AA",
"^+	c #FDFDFC",
"/+	c #F7F5F6",
"(+	c #ECECED",
"_+	c #F46D6E",
":+	c #F57E7F",
"<+	c #F48789",
"[+	c #EF8787",
"}+	c #E17577",
"|+	c #D65E5F",
"1+	c #0E1C85",
"2+	c #0C1C89",
"3+	c #0E1D8B",
"4+	c #4F5BAC",
"5+	c #8088C2",
"6+	c #FCFDFC",
"7+	c #F25D5F",
"8+	c #F57F81",
"9+	c #F38889",
"0+	c #EC8485",
"a+	c #E07273",
"b+	c #D55B5B",
"c+	c #0F1F8B",
"d+	c #525DAD",
"e+	c #7881BF",
"f+	c #818AC3",
"g+	c #FBFCFC",
"h+	c #F4F3F4",
"i+	c #E8E7E8",
"j+	c #F14849",
"k+	c #F48182",
"l+	c #EA8385",
"m+	c #DE6F71",
"n+	c #D45758",
"o+	c #0D1C86",
"p+	c #12218C",
"q+	c #3946A1",
"r+	c #5A64B0",
"s+	c #6E77BA",
"t+	c #7F88C2",
"u+	c #F8F8F9",
"v+	c #EEF0EF",
"w+	c #E8E8E9",
"x+	c #F46C6E",
"y+	c #F48385",
"z+	c #F38789",
"A+	c #E77F7F",
"B+	c #DA686A",
"C+	c #D24E50",
". . . . . . . . . . . . . . . . . . . . . . . . . . . ",
". + @ # $ % & * = - - ; > , ' ) ! ~ { ] ^ / ( _ : < . ",
". [ } | $ 1 2 3 4 5 5 6 7 8 ' 9 ! 6 0 a b c d e f g . ",
". h i | $ j k l m 5 5 n o p q r s 6 { t u v w x f y . ",
". z A B C D E F G 5 5 H I J J o K L M N O P Q R S T . ",
". U V B W X Y Z ` 5 5  .9 q J ..+.L @.#.$.%.&.*.=.-.. ",
". ;.>.,.'.).!.~.{.5 5 ].^./.(.7 _.5 :.<.[.}.|.1.2.3.. ",
". 4.>.,.5.6.7.8.9.5 - 0.) ' (.a.H 5 b.c.d.e.f.g.h.i.. ",
". j.k.l.m.n.o.p.q.5 L r.(.s.) t.u.5 v.w.x.y.z.A.B.C.. ",
". @ # $ % & * = D.- 6 E.(.q ^.F.~ L ] ^ / ( _ A.G.H.. ",
". } # $ I.2 3 4 J.L K.L.M.N.O.! ~ P.a b c d Q.R.S.T.. ",
". U.| $ V.W.l m X.Y.Z.`.(.8 I  +6 L t u v w .+++@+#+. ",
". $+| '.D %+&+*+=+6 -+;+M.(.o s 6 >+N O P ,+.+'+)+!+. ",
". V ~+{+X ]+Z G =+^+/+(+(.) ..+.L 5 #.$._+:+<+[+}+|+. ",
". 1+2+3+).4+~.` 5+6+s I (.) >  .5 5 <.7+}.8+9+0+a+b+. ",
". >.2+c+6.d+8.e+f+g+h+O., i+a.H L - j+x.y.k+9+l+m+n+. ",
". o+'.p+q+r+s+q.t+u+v+^., w+a._.L L b x+,+y+z+A+B+C+. ",
". . . . . . . . . . . . . . . . . . . . . . . . . . . "};
