/* XPM */
static char * German_xpm[] = {
"27 18 329 2",
"  	c None",
". 	c #000000",
"+ 	c #1C1C1C",
"@ 	c #080808",
"# 	c #333333",
"$ 	c #505050",
"% 	c #666666",
"& 	c #767576",
"* 	c #807F80",
"= 	c #7A7979",
"- 	c #555555",
"; 	c #2E2E2E",
"> 	c #171717",
", 	c #010101",
"' 	c #0E0E0E",
") 	c #292929",
"! 	c #474747",
"~ 	c #5C5C5C",
"{ 	c #6D6D6D",
"] 	c #7A7A7A",
"^ 	c #747374",
"/ 	c #191919",
"( 	c #060606",
"_ 	c #0C0C0C",
": 	c #383838",
"< 	c #535353",
"[ 	c #686868",
"} 	c #787878",
"| 	c #808080",
"1 	c #2A2B2B",
"2 	c #121212",
"3 	c #050505",
"4 	c #111111",
"5 	c #2D2D2D",
"6 	c #494949",
"7 	c #5E5E5E",
"8 	c #6F6F6F",
"9 	c #7C7C7C",
"0 	c #727272",
"a 	c #161616",
"b 	c #3E3E3E",
"c 	c #565656",
"d 	c #6A6A6A",
"e 	c #797979",
"f 	c #777677",
"g 	c #4F4F4F",
"h 	c #272627",
"i 	c #101010",
"j 	c #050405",
"k 	c #020202",
"l 	c #141414",
"m 	c #313131",
"n 	c #4C4C4C",
"o 	c #606060",
"p 	c #717171",
"q 	c #7C7C7D",
"r 	c #131313",
"s 	c #040404",
"t 	c #181818",
"u 	c #424242",
"v 	c #595959",
"w 	c #7B7B7B",
"x 	c #818181",
"y 	c #737373",
"z 	c #4B4B4B",
"A 	c #232323",
"B 	c #030303",
"C 	c #353535",
"D 	c #4E4E4E",
"E 	c #636363",
"F 	c #6C6C6C",
"G 	c #1E1E1E",
"H 	c #454545",
"I 	c #6E6E6E",
"J 	c #202020",
"K 	c #1A1A1A",
"L 	c #393939",
"M 	c #515151",
"N 	c #656565",
"O 	c #757575",
"P 	c #E40E0E",
"Q 	c #F00202",
"R 	c #FC0000",
"S 	c #FC0101",
"T 	c #FF2222",
"U 	c #FF4848",
"V 	c #FF5E5E",
"W 	c #FF7171",
"X 	c #FF7D7D",
"Y 	c #FF8080",
"Z 	c #F56A6A",
"` 	c #E84040",
" .	c #E21C1D",
"..	c #E60B0B",
"+.	c #EE0202",
"@.	c #F90000",
"#.	c #FF0000",
"$.	c #FF0707",
"%.	c #FF1E1E",
"&.	c #FF3E3E",
"*.	c #FF5454",
"=.	c #FF6767",
"-.	c #FF7676",
";.	c #FA7979",
">.	c #E66464",
",.	c #E50C0C",
"'.	c #F10101",
").	c #FD0000",
"!.	c #FA0202",
"~.	c #FF2727",
"{.	c #FF4B4B",
"].	c #FF6161",
"^.	c #FF7373",
"/.	c #FF7E7E",
"(.	c #FF7E7F",
"_.	c #F46565",
":.	c #E73B3B",
"<.	c #E21A1A",
"[.	c #E60909",
"}.	c #FA0000",
"|.	c #FF0909",
"1.	c #FF2121",
"2.	c #FF4141",
"3.	c #FF5757",
"4.	c #FF6969",
"5.	c #FF7878",
"6.	c #F77878",
"7.	c #E35F5F",
"8.	c #E6090A",
"9.	c #F40101",
"0.	c #FE0000",
"a.	c #FA0404",
"b.	c #FF2D2D",
"c.	c #FF4D4D",
"d.	c #FF6363",
"e.	c #FF7474",
"f.	c #FE7C7C",
"g.	c #F25E5F",
"h.	c #E63535",
"i.	c #E31717",
"j.	c #E70808",
"k.	c #FB0000",
"l.	c #FF0B0B",
"m.	c #FF2525",
"n.	c #FF4444",
"o.	c #FF5959",
"p.	c #FF6B6B",
"q.	c #FF7979",
"r.	c #F47675",
"s.	c #E15959",
"t.	c #E80808",
"u.	c #F50000",
"v.	c #FA0808",
"w.	c #FF3333",
"x.	c #FF5050",
"y.	c #FF6666",
"z.	c #FF7575",
"A.	c #FD7A7A",
"B.	c #F15959",
"C.	c #E63232",
"D.	c #E31515",
"E.	c #E80707",
"F.	c #F20101",
"G.	c #FF0E0E",
"H.	c #FF2929",
"I.	c #FF4747",
"J.	c #FF5C5C",
"K.	c #FF6D6D",
"L.	c #F27373",
"M.	c #DF5354",
"N.	c #EA0607",
"O.	c #F60000",
"P.	c #FB0C0C",
"Q.	c #FF3838",
"R.	c #FF5353",
"S.	c #FF6868",
"T.	c #FF7677",
"U.	c #FE7E7E",
"V.	c #FB7374",
"W.	c #F05454",
"X.	c #E62E2F",
"Y.	c #E41514",
"Z.	c #EA0606",
"`.	c #F30101",
" +	c #FF0101",
".+	c #FF1111",
"++	c #FF4949",
"@+	c #FE6F6E",
"#+	c #FD7A78",
"$+	c #EF6D6D",
"%+	c #DF4D4E",
"&+	c #EB0606",
"*+	c #F80000",
"=+	c #FD1313",
"-+	c #FE3D3D",
";+	c #FF5656",
">+	c #FF6A6A",
",+	c #FE7878",
"'+	c #FE7C7B",
")+	c #F96E6F",
"!+	c #EE4F51",
"~+	c #E62C2C",
"{+	c #E41414",
"]+	c #F50100",
"^+	c #FE0101",
"/+	c #FF1414",
"(+	c #FF3131",
"_+	c #FF4C4C",
":+	c #FF6060",
"<+	c #FE7070",
"[+	c #FA7677",
"}+	c #EC6869",
"|+	c #E04A4A",
"1+	c #ECBE05",
"2+	c #F8C700",
"3+	c #FCCA00",
"4+	c #FED018",
"5+	c #FFD840",
"6+	c #FFDD58",
"7+	c #FFE16B",
"8+	c #FFE479",
"9+	c #FDE27A",
"0+	c #F8DB6A",
"a+	c #EECC4B",
"b+	c #E6C029",
"c+	c #E6BB12",
"d+	c #F5C400",
"e+	c #FDCA00",
"f+	c #FECC04",
"g+	c #FFD017",
"h+	c #FFD635",
"i+	c #FFDB4E",
"j+	c #FFDF62",
"k+	c #FEE270",
"l+	c #F8DE73",
"m+	c #EBD063",
"n+	c #E0C247",
"o+	c #EEBF03",
"p+	c #F9C700",
"q+	c #FCCA01",
"r+	c #FFD11D",
"s+	c #FFD943",
"t+	c #FFDE5C",
"u+	c #FFE16D",
"v+	c #FFE478",
"w+	c #FDE278",
"x+	c #F7D967",
"y+	c #ECCB47",
"z+	c #E6BF26",
"A+	c #E7BC10",
"B+	c #EDBE05",
"C+	c #F7C600",
"D+	c #FECB00",
"E+	c #FFCD05",
"F+	c #FFD11A",
"G+	c #FFD739",
"H+	c #FFDC50",
"I+	c #FFE064",
"J+	c #FDE170",
"K+	c #F7DB6F",
"L+	c #EACE5E",
"M+	c #E0C143",
"N+	c #EFC002",
"O+	c #FBC902",
"P+	c #FED221",
"Q+	c #FFDA47",
"R+	c #FFDE5E",
"S+	c #FFE26F",
"T+	c #FCE277",
"U+	c #F5D763",
"V+	c #EBC941",
"W+	c #E6BF23",
"X+	c #E7BC0E",
"Y+	c #EFC004",
"Z+	c #F8C600",
"`+	c #FFCC00",
" @	c #FFCD07",
".@	c #FFD21E",
"+@	c #FFD83D",
"@@	c #FFDC54",
"#@	c #FFE066",
"$@	c #FCE070",
"%@	c #F5DA6E",
"&@	c #E9CC5A",
"*@	c #DFC03F",
"=@	c #F0C002",
"-@	c #FAC800",
";@	c #FBC904",
">@	c #FED326",
",@	c #FFDA4A",
"'@	c #FFDF61",
")@	c #FFE272",
"!@	c #FEE47B",
"~@	c #FBE177",
"{@	c #F4D560",
"]@	c #EAC83D",
"^@	c #E5BE1F",
"/@	c #E8BC0D",
"(@	c #F0C103",
"_@	c #FECC00",
":@	c #FFCD09",
"<@	c #FFD323",
"[@	c #FFD944",
"}@	c #FFDD59",
"|@	c #FEE068",
"1@	c #FBE071",
"2@	c #F3D86D",
"3@	c #E7CA57",
"4@	c #DEBD3B",
"5@	c #F2C201",
"6@	c #FAC906",
"7@	c #FED52F",
"8@	c #FFDC52",
"9@	c #FFE374",
"0@	c #FDE37A",
"a@	c #F8DC6D",
"b@	c #EED04F",
"c@	c #E8C431",
"d@	c #E5BD1A",
"e@	c #E8BC0B",
"f@	c #F0C102",
"g@	c #FECE0B",
"h@	c #FFD52D",
"i@	c #FFDB50",
"j@	c #FDE06B",
"k@	c #FCDE71",
"l@	c #F0D667",
"m@	c #E3C650",
"n@	c #DDBA32",
". . . . . . . . . . . . . . . . . . . . . . . . . . . ",
". + @ . . @ # $ % & * = - ; > @ , . , ' ) ! ~ { ] ^ . ",
". / ( . . _ : < [ } | ] - 1 2 3 . . , 4 5 6 7 8 9 0 . ",
". a 3 . . 2 b c d e | f g h i j . . k l m n o p q 8 . ",
". r s . . t u v { w x y z A ' s . . B > C D E y 9 F . ",
". i B . . G H ~ 8 9 x I H J _ B . . 3 K L M N O ] [ . ",
". P Q R S T U V W X Y Z `  ...+.@.#.$.%.&.*.=.-.;.>.. ",
". ,.'.).!.~.{.].^./.(._.:.<.[.Q }.#.|.1.2.3.4.5.6.7.. ",
". 8.9.0.a.b.c.d.e./.f.g.h.i.j.'.k.#.l.m.n.o.p.q.r.s.. ",
". t.u.#.v.w.x.y.z.(.A.B.C.D.E.F.R 0.G.H.I.J.K.q.L.M.. ",
". N.O.0.P.Q.R.S.T.U.V.W.X.Y.Z.`.R  +.+b.++V @+#+$+%+. ",
". &+*+#.=+-+;+>+,+'+)+!+~+{+&+]+).^+/+(+_+:+<+[+}+|+. ",
". 1+2+3+4+5+6+7+8+9+0+a+b+c+1+d+e+f+g+h+i+j+k+l+m+n+. ",
". o+p+q+r+s+t+u+v+w+x+y+z+A+B+C+D+E+F+G+H+I+J+K+L+M+. ",
". N+p+O+P+Q+R+S+8+T+U+V+W+X+Y+Z+`+ @.@+@@@#@$@%@&@*@. ",
". =@-@;@>@,@'@)@!@~@{@]@^@/@(@-@_@:@<@[@}@|@1@2@3@4@. ",
". 5@3+6@7@8@#@9@0@a@b@c@d@e@f@p+_@g@h@i@'@j@k@l@m@n@. ",
". . . . . . . . . . . . . . . . . . . . . . . . . . . "};
