/* XPM */
static char * Kazakh_xpm[] = {
"27 18 311 2",
"  	c None",
". 	c #000000",
"+ 	c #1C7FE1",
"@ 	c #E8E808",
"# 	c #7BB97B",
"$ 	c #0080FF",
"% 	c #0882FA",
"& 	c #3399FF",
"* 	c #50A7FF",
"= 	c #66B2FF",
"- 	c #76BAFF",
"; 	c #80BFFF",
"> 	c #7ABBFD",
", 	c #55A3EF",
"' 	c #2E8AE5",
") 	c #177DE2",
"! 	c #0878E7",
"~ 	c #017AF3",
"{ 	c #007EFC",
"] 	c #0180FE",
"^ 	c #0E86FF",
"/ 	c #2994FF",
"( 	c #47A3FF",
"_ 	c #5CADFF",
": 	c #6DB6FF",
"< 	c #7ABCFF",
"[ 	c #74B3F2",
"} 	c #197EE1",
"| 	c #0678E9",
"1 	c #F7F700",
"2 	c #0C84FB",
"3 	c #389BFF",
"4 	c #53A9FF",
"5 	c #68B3FF",
"6 	c #78BBFF",
"7 	c #7ABCFD",
"8 	c #55A2EE",
"9 	c #2A88E5",
"0 	c #127BE2",
"a 	c #0578E9",
"b 	c #007AF3",
"c 	c #007FFD",
"d 	c #0180FF",
"e 	c #1188FF",
"f 	c #2D96FF",
"g 	c #49A4FF",
"h 	c #5EAEFF",
"i 	c #6FB7FF",
"j 	c #7CBDFF",
"k 	c #72B1F0",
"l 	c #167CE1",
"m 	c #EBEB05",
"n 	c #7CBB7C",
"o 	c #1288FD",
"p 	c #3E9EFF",
"q 	c #56AAFF",
"r 	c #6AB4FF",
"s 	c #79BCFF",
"t 	c #77B9FC",
"u 	c #4F9EEC",
"v 	c #E5E427",
"w 	c #7AAF7A",
"x 	c #EBEA05",
"y 	c #007BF5",
"z 	c #007EFD",
"A 	c #0280FF",
"B 	c #1489FF",
"C 	c #3198FF",
"D 	c #4CA5FF",
"E 	c #60AFFF",
"F 	c #71B8FF",
"G 	c #6FAFED",
"H 	c #137BE2",
"I 	c #0479ED",
"J 	c #FAFA00",
"K 	c #007FFE",
"L 	c #188CFE",
"M 	c #42A0FF",
"N 	c #59ACFF",
"O 	c #7BBDFF",
"P 	c #81C0FF",
"Q 	c #73B7FA",
"R 	c #EBEB4B",
"S 	c #83B484",
"T 	c #79AF79",
"U 	c #78B278",
"V 	c #FEFE00",
"W 	c #0381FF",
"X 	c #178BFF",
"Y 	c #359AFF",
"Z 	c #4EA6FF",
"` 	c #63B1FF",
" .	c #73B9FF",
"..	c #7CBDFD",
"+.	c #6CACEB",
"@.	c #107AE2",
"#.	c #EEEE03",
"$.	c #007EFB",
"%.	c #1E8EFF",
"&.	c #45A2FF",
"*.	c #F8F86E",
"=.	c #97C197",
"-.	c #E3E320",
";.	c #E4E40C",
">.	c #EDED03",
",.	c #7CBA7C",
"'.	c #7FBF7F",
").	c #FFFF05",
"!.	c #1A8CFF",
"~.	c #399CFF",
"{.	c #51A8FF",
"].	c #65B2FF",
"^.	c #75BAFF",
"/.	c #7ABBFB",
"(.	c #68A8E8",
"_.	c #0E79E4",
":.	c #0279F0",
"<.	c #FCFC00",
"[.	c #017FFC",
"}.	c #2290FF",
"|.	c #48A3FF",
"1.	c #7DBEFF",
"2.	c #B0D3B0",
"3.	c #94BE94",
"4.	c #E2E21D",
"5.	c #E6E60B",
"6.	c #EEEE02",
"7.	c #7DBB7D",
"8.	c #80C080",
"9.	c #83C183",
"0.	c #54A9FF",
"a.	c #67B3FF",
"b.	c #7AB9F9",
"c.	c #64A5E6",
"d.	c #0C79E5",
"e.	c #7AB67A",
"f.	c #FDFD00",
"g.	c #027FFA",
"h.	c #2793FF",
"i.	c #4BA5FF",
"j.	c #61B0FF",
"k.	c #7EBEFF",
"l.	c #7FBEFF",
"m.	c #F4F465",
"n.	c #91BC91",
"o.	c #E2E21A",
"p.	c #E6E609",
"q.	c #F0F002",
"r.	c #7DBC7D",
"s.	c #FFFF09",
"t.	c #2190FF",
"u.	c #41A0FF",
"v.	c #57ABFF",
"w.	c #69B4FF",
"x.	c #78B8F7",
"y.	c #5FA1E3",
"z.	c #0978E7",
"A.	c #F4F401",
"B.	c #0480FA",
"C.	c #4DA6FF",
"D.	c #74B9FF",
"E.	c #7CBDFE",
"F.	c #5FA8F2",
"G.	c #E6E635",
"H.	c #7DB07D",
"I.	c #78B078",
"J.	c #7EBD7E",
"K.	c #FFFF00",
"L.	c #0B85FF",
"M.	c #2592FF",
"N.	c #44A1FF",
"O.	c #6BB5FF",
"P.	c #75B6F4",
"Q.	c #599DE1",
"R.	c #0878E8",
"S.	c #BFDEBF",
"T.	c #BBDCBC",
"U.	c #5AA5F0",
"V.	c #8CB98D",
"W.	c #78B178",
"X.	c #94CA94",
"Y.	c #A3D1A3",
"Z.	c #7ABCFE",
"`.	c #73B3F2",
" +	c #539AE0",
".+	c #0778EA",
"++	c #F6F600",
"@+	c #0080FE",
"#+	c #BBDCBB",
"$+	c #FEFE7E",
"%+	c #B8D9B8",
"&+	c #55A2EF",
"*+	c #2E8BE7",
"=+	c #E4E414",
"-+	c #79B279",
";+	c #F3F301",
">+	c #0280FE",
",+	c #96CB96",
"'+	c #FFFF49",
")+	c #6EB7FE",
"!+	c #79BCFC",
"~+	c #6DAFEF",
"{+	c #4D96E0",
"]+	c #0678EB",
"^+	c #007CF8",
"/+	c #1388FD",
"(+	c #3C9EFF",
"_+	c #77BBFF",
":+	c #FEFE7B",
"<+	c #6FB3F9",
"[+	c #EEED51",
"}+	c #8AB88A",
"|+	c #137CE5",
"1+	c #0679EB",
"2+	c #017BF4",
"3+	c #FFFF14",
"4+	c #FFFF4C",
"5+	c #70B7FE",
"6+	c #76B8FB",
"7+	c #68AAED",
"8+	c #4A95E0",
"9+	c #F8F800",
"0+	c #188BFE",
"a+	c #41A0FE",
"b+	c #58ABFF",
"c+	c #F8F76A",
"d+	c #4C9CED",
"e+	c #E6E629",
"f+	c #E6E612",
"g+	c #ECEC05",
"h+	c #F5F500",
"i+	c #7FBE7F",
"j+	c #FEFE04",
"k+	c #FFFF35",
"l+	c #62B0FF",
"m+	c #73B6F8",
"n+	c #62A7EC",
"o+	c #4794E0",
"p+	c #0379EE",
"q+	c #007DF9",
"r+	c #FCFC01",
"s+	c #1E8EFE",
"t+	c #43A1FF",
"u+	c #79BCFE",
"v+	c #79BBFC",
"w+	c #68AEF6",
"x+	c #4699ED",
"y+	c #2686E6",
"z+	c #E7E710",
"A+	c #EDED05",
"B+	c #0582FF",
"C+	c #64B1FF",
"D+	c #70B6FD",
"E+	c #71B3F5",
"F+	c #5EA4EA",
"G+	c #4392E0",
"H+	c #0279EF",
"I+	c #F9F900",
"J+	c #027FFB",
"K+	c #2190FE",
"L+	c #77BAFC",
"M+	c #63ACF5",
"N+	c #4196EB",
"O+	c #2385E6",
"P+	c #0E7BE7",
"Q+	c #047AEF",
"R+	c #007DF8",
"S+	c #0783FF",
"T+	c #3D9EFF",
"U+	c #70B7FC",
"V+	c #6EB1F5",
"W+	c #5AA2E9",
"X+	c #3F90DF",
"Y+	c #007EFA",
"Z+	c #FBFB04",
"`+	c #2693FE",
" @	c #4AA4FF",
".@	c #72B8FF",
"+@	c #7BBDFE",
"@@	c #76B9FC",
"#@	c #60A9F4",
"$@	c #3D94EA",
"%@	c #1F83E5",
"&@	c #0D7AE8",
"*@	c #037AF0",
"=@	c #007DFA",
"-@	c #0984FF",
";@	c #2391FF",
">@	c #68B3FE",
",@	c #70B6FC",
"'@	c #6CB0F4",
")@	c #579FE7",
"!@	c #3B8DDE",
"~@	c #017BF2",
"{@	c #FAFA06",
"]@	c #2F97FE",
"^@	c #52A8FF",
"/@	c #67B3FE",
"(@	c #6CB2F9",
"_@	c #4EA0EF",
":@	c #318DE8",
"<@	c #1A80E5",
"[@	c #0A7AE9",
"}@	c #027AF0",
"|@	c #0B85FE",
"1@	c #62B0FE",
"2@	c #6AB4FE",
"3@	c #72B5FB",
"4@	c #67ADF0",
"5@	c #4E9AE5",
"6@	c #3287DD",
". . . . . . . . . . . . . . . . . . . . . . . . . . . ",
". + @ # $ % & * = - ; > , ' ) ! ~ { ] ^ / ( _ : < [ . ",
". } | 1 $ 2 3 4 5 6 ; 7 8 9 0 a b c d e f g h i j k . ",
". l m n $ o p q r s ; t u v w x y z A B C D E F j G . ",
". H I J K L M N : O P Q R S T U # V W X Y Z `  ...+.. ",
". @.#.$.c %.&._ i j P *.=.-.;.>.,.'.).!.~.{.].^./.(.. ",
". _.:.<.[.}.|.h F 1.; 2.3.4.5.6.7.8.9.%.p 0.a.- b.c.. ",
". d.e.f.g.h.i.j. .k.l.m.n.o.p.q.r.8.s.t.u.v.w.6 x.y.. ",
". z.A.V B.f C.` D.k.E.F.G.H.I.e.J.K.L.M.N.N O.s P.Q.. ",
". R.y K.% & * = ^.S.T.U.V.H.W.e.<.8.^ X.Y._ : Z.`. +. ",
". .+++@+2 3 4 5 #+$+%+&+*+=+-+;+{ >+e ,+'+h )+!+~+{+. ",
". ]+^+K./+(+q r _+:+<+[+}+|+1+2+c 8.3+C 4+E 5+6+7+8+. ",
". I 9+<.0+a+b+O.s > c+d+e+f+g+h+i+j+X k+Z l+5+m+n+o+. ",
". p+q+r+s+t+_ : u+v+w+x+y+z+A+1 V B+!.~.* C+D+E+F+G+. ",
". H+I+J+K+( h i Z.L+M+N+O+P+Q+R+$ S+%.T+0.= U+V+W+X+. ",
". :.Y+Z+`+ @j..@+@@@#@$@%@&@*@=@@+-@;@N.N >@,@'@)@!@. ",
". ~@<.{@]@^@/@D.u+(@_@:@<@[@}@q+@+|@f * 1@2@3@4@5@6@. ",
". . . . . . . . . . . . . . . . . . . . . . . . . . . "};
