/* XPM */
static char * Romanian_xpm[] = {
"27 18 318 2",
"  	c None",
". 	c #000000",
"+ 	c #1C52CE",
"@ 	c #0844D2",
"# 	c #0043DD",
"$ 	c #0045E6",
"% 	c #084AE3",
"& 	c #336AEB",
"* 	c #507FED",
"= 	c #668FF0",
"- 	c #FFF17C",
"; 	c #FFF286",
"> 	c #FEF080",
", 	c #EFE05D",
"' 	c #E5D337",
") 	c #E2CE21",
"! 	c #E7D114",
"~ 	c #F3DB0D",
"{ 	c #FCE30D",
"] 	c #F21931",
"^ 	c #F2243B",
"/ 	c #F43D51",
"( 	c #F55869",
"_ 	c #F66B7A",
": 	c #F77A88",
"< 	c #F88693",
"[ 	c #EB7F8C",
"} 	c #1950CE",
"| 	c #0644D3",
"1 	c #0043DF",
"2 	c #0C4DE4",
"3 	c #386DEB",
"4 	c #5381EE",
"5 	c #6890F0",
"6 	c #FFF17E",
"7 	c #FDF081",
"8 	c #EEDF5D",
"9 	c #E4D334",
"0 	c #E2CE1D",
"a 	c #E9D311",
"b 	c #F3DC0D",
"c 	c #FDE40C",
"d 	c #F21830",
"e 	c #F2273D",
"f 	c #F44054",
"g 	c #F55A6B",
"h 	c #F66D7C",
"i 	c #F77C8A",
"j 	c #F88894",
"k 	c #E97E8A",
"l 	c #164DCD",
"m 	c #0543D4",
"n 	c #0043E0",
"o 	c #1251E6",
"p 	c #3E72EC",
"q 	c #5683EE",
"r 	c #6A92F0",
"s 	c #FFF17F",
"t 	c #FCEE7D",
"u 	c #ECDD57",
"v 	c #E5D230",
"w 	c #E3CE1B",
"x 	c #EBD410",
"y 	c #F5DD0D",
"z 	c #F32A40",
"A 	c #F44457",
"B 	c #F55C6D",
"C 	c #F66E7D",
"D 	c #F77E8B",
"E 	c #F78895",
"F 	c #E77B87",
"G 	c #134BCE",
"H 	c #0443D6",
"I 	c #0043E1",
"J 	c #0044E5",
"K 	c #1856E8",
"L 	c #4275EC",
"M 	c #5985EE",
"N 	c #6D94F0",
"O 	c #FFF281",
"P 	c #FFF287",
"Q 	c #FAED7A",
"R 	c #EBDB53",
"S 	c #E4D12D",
"T 	c #E4CF19",
"U 	c #ECD50F",
"V 	c #F6DE0D",
"W 	c #FEE50C",
"X 	c #F21A32",
"Y 	c #F32C42",
"Z 	c #F4485B",
"` 	c #F55E6F",
" .	c #F77180",
"..	c #F7808D",
"+.	c #F68894",
"@.	c #E47884",
"#.	c #1049CE",
"$.	c #0342D7",
"%.	c #0044E2",
"&.	c #0044E4",
"*.	c #1E5AE8",
"=.	c #4577EC",
"-.	c #5C88EF",
";.	c #6F95F0",
">.	c #FFF282",
",.	c #F8EA75",
"'.	c #E9D94D",
").	c #E3D02A",
"!.	c #E4CF17",
"~.	c #EDD60F",
"{.	c #F7DF0C",
"].	c #F21C34",
"^.	c #F32F45",
"/.	c #F44B5E",
"(.	c #F66171",
"_.	c #F77381",
":.	c #F7818E",
"<.	c #F48692",
"[.	c #E27480",
"}.	c #0E48CF",
"|.	c #0242D9",
"1.	c #0044E3",
"2.	c #0144E3",
"3.	c #225DE9",
"4.	c #4879ED",
"5.	c #5E89EF",
"6.	c #7197F1",
"7.	c #FFF283",
"8.	c #F5E871",
"9.	c #E8D748",
"0.	c #E2CF27",
"a.	c #E6D016",
"b.	c #EED70E",
"c.	c #F9E00C",
"d.	c #FFE60D",
"e.	c #F21E35",
"f.	c #F33348",
"g.	c #F55062",
"h.	c #F66474",
"i.	c #F77583",
"j.	c #F8828F",
"k.	c #F38591",
"l.	c #DF707C",
"m.	c #0C46CF",
"n.	c #0142DA",
"o.	c #0245E2",
"p.	c #2761E9",
"q.	c #4B7BED",
"r.	c #618BEF",
"s.	c #7398F1",
"t.	c #FFF284",
"u.	c #FFF185",
"v.	c #F4E66C",
"w.	c #E7D644",
"x.	c #E2CF24",
"y.	c #E6D015",
"z.	c #F0D80E",
"A.	c #FAE10C",
"B.	c #F22037",
"C.	c #F3354A",
"D.	c #F55264",
"E.	c #F66676",
"F.	c #F77785",
"G.	c #F88491",
"H.	c #F08490",
"I.	c #DC6B78",
"J.	c #0945D1",
"K.	c #0143DC",
"L.	c #0447E2",
"M.	c #2D65EA",
"N.	c #4D7DED",
"O.	c #638DEF",
"P.	c #7499F1",
"Q.	c #FEF182",
"R.	c #F2E366",
"S.	c #E6D53E",
"T.	c #E3CE22",
"U.	c #F1DA0D",
"V.	c #FBE20C",
"W.	c #F22138",
"X.	c #F3394E",
"Y.	c #F55567",
"Z.	c #F66878",
"`.	c #F77886",
" +	c #F88592",
".+	c #EE828D",
"++	c #DA6673",
"@+	c #0845D2",
"#+	c #759AF1",
"$+	c #F1E161",
"%+	c #E6D43C",
"&+	c #E3CF20",
"*+	c #E8D213",
"=+	c #F2DA0D",
"-+	c #FCE30C",
";+	c #FEE60D",
">+	c #F88692",
",+	c #EB7F8B",
"'+	c #D8616E",
")+	c #0744D3",
"!+	c #0043DE",
"~+	c #779BF1",
"{+	c #FEF185",
"]+	c #FBED7B",
"^+	c #F0E05C",
"/+	c #E6D438",
"(+	c #E4CF1F",
"_+	c #EAD412",
":+	c #FFE60E",
"<+	c #F77C89",
"[+	c #F68691",
"}+	c #E97A86",
"|+	c #D75B69",
"1+	c #0643D4",
"2+	c #1352E6",
"3+	c #3C71EB",
"4+	c #779CF1",
"5+	c #F9EB76",
"6+	c #EEDE59",
"7+	c #E6D336",
"8+	c #E4D01E",
"9+	c #EBD412",
"0+	c #FEE60E",
"a+	c #F77D8B",
"b+	c #F3838F",
"c+	c #E57582",
"d+	c #D85866",
"e+	c #4174EC",
"f+	c #5885EE",
"g+	c #6B93F0",
"h+	c #799DF1",
"i+	c #F8E971",
"j+	c #EEDD53",
"k+	c #E6D433",
"l+	c #E6D11D",
"m+	c #ECD611",
"n+	c #FDE40D",
"o+	c #FEE610",
"p+	c #F6707F",
"q+	c #F77D8A",
"r+	c #F2808C",
"s+	c #E46F7D",
"t+	c #D85664",
"u+	c #0343D7",
"v+	c #0145E3",
"w+	c #4375EC",
"x+	c #FDF07F",
"y+	c #F7E76E",
"z+	c #ECDC4F",
"A+	c #E6D330",
"B+	c #E7D21B",
"C+	c #EDD610",
"D+	c #F7DF0D",
"E+	c #FEE50D",
"F+	c #FFE611",
"G+	c #F66070",
"H+	c #F77281",
"I+	c #F67D8B",
"J+	c #F07D89",
"K+	c #E36B79",
"L+	c #D85261",
"M+	c #0243D8",
"N+	c #0044E1",
"O+	c #0245E3",
"P+	c #215DE9",
"Q+	c #4778EC",
"R+	c #7A9DF1",
"S+	c #FCF07D",
"T+	c #F5E66B",
"U+	c #EBDA4A",
"V+	c #E6D32D",
"W+	c #E7D219",
"X+	c #EFD810",
"Y+	c #F8E00D",
"Z+	c #FFE613",
"`+	c #F54F61",
" @	c #F77482",
".@	c #F57D8A",
"+@	c #EE7A87",
"@@	c #E26774",
"#@	c #D74F5D",
"$@	c #0446E2",
"%@	c #2661E9",
"&@	c #4A7AED",
"*@	c #7298F1",
"=@	c #7B9FF1",
"-@	c #FBEF7E",
";@	c #F4E467",
">@	c #EAD945",
",@	c #E5D22A",
"'@	c #E8D218",
")@	c #F0D90F",
"!@	c #FAE10D",
"~@	c #FFE615",
"{@	c #F3374C",
"]@	c #F67684",
"^@	c #F47D8B",
"/@	c #EC7986",
"(@	c #E06573",
"_@	c #D64A5A",
":@	c #0143DB",
"<@	c #0648E2",
"[@	c #2F67EA",
"}@	c #5280EE",
"|@	c #6790EF",
"1@	c #F8EA74",
"2@	c #EEE057",
"3@	c #E8D63A",
"4@	c #E5D224",
"5@	c #E8D316",
"6@	c #F9E00D",
"7@	c #FEE718",
"8@	c #F65F70",
"9@	c #F57886",
"0@	c #F57C8B",
"a@	c #E97581",
"b@	c #DC5D6C",
"c@	c #D44252",
". . . . . . . . . . . . . . . . . . . . . . . . . . . ",
". + @ # $ % & * = - ; > , ' ) ! ~ { ] ^ / ( _ : < [ . ",
". } | 1 $ 2 3 4 5 6 ; 7 8 9 0 a b c d e f g h i j k . ",
". l m n $ o p q r s ; t u v w x y c ] z A B C D E F . ",
". G H I J K L M N O P Q R S T U V W X Y Z `  ...+.@.. ",
". #.$.%.&.*.=.-.;.>.P ,.'.).!.~.{.W ].^./.(._.:.<.[.. ",
". }.|.1.2.3.4.5.6.7.; 8.9.0.a.b.c.d.e.f.g.h.i.j.k.l.. ",
". m.n.&.o.p.q.r.s.t.u.v.w.x.y.z.A.d.B.C.D.E.F.G.H.I.. ",
". J.K.J L.M.N.O.P.t.Q.R.S.T.! U.V.d.W.X.Y.Z.`. +.+++. ",
". @+# $ % & * = #+u.7 $+%+&+*+=+-+;+^ / ( _ : >+,+'+. ",
". )+!+$ 2 3 4 5 ~+{+]+^+/+(+_+~ -+:+e f g h <+[+}+|+. ",
". 1+n $ 2+3+q r 4+Q.5+6+7+8+9+y c 0+z A B C a+b+c+d+. ",
". H n 1.K e+f+g+h+7 i+j+k+l+m+y n+o+Y Z ` p+q+r+s+t+. ",
". u+I v+*.w+-.N h+x+y+z+A+B+C+D+E+F+^./.G+H+I+J+K+L+. ",
". M+N+O+P+Q+5.;.R+S+T+U+V+W+X+Y+d.Z+f.`+h. @.@+@@@#@. ",
". |.%.$@%@&@r.*@=@-@;@>@,@'@)@!@;+~@{@Y.Z.]@^@/@(@_@. ",
". :@1.<@[@}@|@P.h+1@2@3@4@5@)@6@;+7@f 8@p+9@0@a@b@c@. ",
". . . . . . . . . . . . . . . . . . . . . . . . . . . "};
