/* XPM */
static char * Russian_xpm[] = {
"27 18 281 2",
"  	c None",
". 	c #000000",
"+ 	c #E1E1E1",
"@ 	c #E8E8E8",
"# 	c #F5F5F5",
"$ 	c #FFFFFF",
"% 	c #FAFAFA",
"& 	c #FFFEFF",
"* 	c #FEFDFD",
"= 	c #EFEFEF",
"- 	c #E5E5E5",
"; 	c #E2E2E2",
"> 	c #E7E7E7",
", 	c #F3F3F3",
"' 	c #FCFCFC",
") 	c #FEFEFE",
"! 	c #F2F1F2",
"~ 	c #E9E9E9",
"{ 	c #F7F7F7",
"] 	c #FBFBFB",
"^ 	c #FDFDFD",
"/ 	c #EEEEEE",
"( 	c #E4E5E5",
"_ 	c #F0F0F0",
": 	c #EBEBEB",
"< 	c #F8F8F8",
"[ 	c #FCFBFC",
"} 	c #ECECEC",
"| 	c #E5E4E5",
"1 	c #E3E3E3",
"2 	c #EBEAEB",
"3 	c #FEFEFF",
"4 	c #EDEDED",
"5 	c #E4E4E4",
"6 	c #F6F6F6",
"7 	c #0E0EE4",
"8 	c #0202F0",
"9 	c #0000FC",
"0 	c #0101FC",
"a 	c #2222FF",
"b 	c #4848FF",
"c 	c #5E5EFF",
"d 	c #7171FF",
"e 	c #7D7DFF",
"f 	c #8080FF",
"g 	c #696AF6",
"h 	c #4040E8",
"i 	c #1C1CE3",
"j 	c #0B0BE6",
"k 	c #0202EE",
"l 	c #0000F9",
"m 	c #0000FF",
"n 	c #0707FF",
"o 	c #1E1EFF",
"p 	c #3E3EFF",
"q 	c #5454FF",
"r 	c #6767FF",
"s 	c #7676FF",
"t 	c #7A79F9",
"u 	c #6464E6",
"v 	c #0C0CE5",
"w 	c #0101F1",
"x 	c #0000FD",
"y 	c #0202FA",
"z 	c #2727FF",
"A 	c #4B4BFF",
"B 	c #6161FF",
"C 	c #7373FF",
"D 	c #7E7EFF",
"E 	c #7F7EFF",
"F 	c #6565F4",
"G 	c #3B3BE7",
"H 	c #1A1AE2",
"I 	c #0909E6",
"J 	c #0000FA",
"K 	c #0909FF",
"L 	c #2121FF",
"M 	c #4141FF",
"N 	c #5757FF",
"O 	c #6969FF",
"P 	c #7878FF",
"Q 	c #7878F7",
"R 	c #5F5FE3",
"S 	c #0909E7",
"T 	c #0101F4",
"U 	c #0000FE",
"V 	c #0404FA",
"W 	c #2D2DFF",
"X 	c #4D4DFF",
"Y 	c #6363FF",
"Z 	c #7474FF",
"` 	c #7C7CFE",
" .	c #5F5EF2",
"..	c #3535E6",
"+.	c #1817E2",
"@.	c #0808E7",
"#.	c #0000FB",
"$.	c #0B0BFF",
"%.	c #2525FF",
"&.	c #4444FF",
"*.	c #5959FF",
"=.	c #6B6BFF",
"-.	c #7979FF",
";.	c #7576F4",
">.	c #5959E1",
",.	c #0808E8",
"'.	c #0000F5",
").	c #0808FA",
"!.	c #3333FF",
"~.	c #5050FF",
"{.	c #6666FF",
"].	c #7575FF",
"^.	c #7A7AFD",
"/.	c #5A59F0",
"(.	c #3232E6",
"_.	c #1515E3",
":.	c #0707E8",
"<.	c #0101F2",
"[.	c #0E0EFF",
"}.	c #2929FF",
"|.	c #4747FF",
"1.	c #5C5CFF",
"2.	c #6D6DFF",
"3.	c #7A79FE",
"4.	c #7373F2",
"5.	c #5353E0",
"6.	c #0706EA",
"7.	c #0000F6",
"8.	c #0C0CFB",
"9.	c #3838FF",
"0.	c #5353FF",
"a.	c #6868FF",
"b.	c #7776FF",
"c.	c #7E7EFE",
"d.	c #7473FB",
"e.	c #5554EF",
"f.	c #2E2EE7",
"g.	c #0606EA",
"h.	c #0101F3",
"i.	c #0201FE",
"j.	c #1111FF",
"k.	c #4949FF",
"l.	c #6E6FFE",
"m.	c #797AFC",
"n.	c #6D6DEF",
"o.	c #4D4DE0",
"p.	c #0606EB",
"q.	c #0000F8",
"r.	c #1313FD",
"s.	c #3C3DFF",
"t.	c #5656FF",
"u.	c #6A6AFF",
"v.	c #7778FF",
"w.	c #7C7CFD",
"x.	c #6F6EF9",
"y.	c #504FEF",
"z.	c #2C2CE6",
"A.	c #1314E5",
"B.	c #0101FE",
"C.	c #1414FF",
"D.	c #3131FF",
"E.	c #4C4CFF",
"F.	c #6060FF",
"G.	c #7070FE",
"H.	c #7676FB",
"I.	c #6868ED",
"J.	c #4A4AE0",
"K.	c #EC0505",
"L.	c #F80000",
"M.	c #FC0000",
"N.	c #FE1818",
"O.	c #FF4040",
"P.	c #FF5858",
"Q.	c #FF6B6B",
"R.	c #FF7979",
"S.	c #FD7A7A",
"T.	c #F86A6A",
"U.	c #EE4B4B",
"V.	c #E62829",
"W.	c #E61212",
"X.	c #F50000",
"Y.	c #FD0000",
"Z.	c #FE0304",
"`.	c #FF1717",
" +	c #FF3535",
".+	c #FF4E4E",
"++	c #FF6262",
"@+	c #FE7070",
"#+	c #F87373",
"$+	c #EB6263",
"%+	c #E04747",
"&+	c #EE0303",
"*+	c #F90000",
"=+	c #FC0101",
"-+	c #FF1D1D",
";+	c #FF4343",
">+	c #FF5C5C",
",+	c #FF6D6D",
"'+	c #FF7978",
")+	c #FD7978",
"!+	c #F76667",
"~+	c #EC4647",
"{+	c #E62626",
"]+	c #E71010",
"^+	c #ED0505",
"/+	c #F70000",
"(+	c #FE0000",
"_+	c #FF0505",
":+	c #FF1A1A",
"<+	c #FF3939",
"[+	c #FF5050",
"}+	c #FF6464",
"|+	c #FD7070",
"1+	c #F7706F",
"2+	c #EA5E5E",
"3+	c #E04443",
"4+	c #EF0202",
"5+	c #FB0202",
"6+	c #FE2121",
"7+	c #FF4747",
"8+	c #FF5E5E",
"9+	c #FF6F6F",
"0+	c #FF7A79",
"a+	c #FC7877",
"b+	c #F56363",
"c+	c #EB4141",
"d+	c #E62323",
"e+	c #E70E0E",
"f+	c #EF0404",
"g+	c #FF0000",
"h+	c #FF0707",
"i+	c #FF1E1E",
"j+	c #FF3D3D",
"k+	c #FF5454",
"l+	c #FF6666",
"m+	c #FC7070",
"n+	c #F56E6E",
"o+	c #E95A5A",
"p+	c #DF403F",
"q+	c #F00202",
"r+	c #FA0000",
"s+	c #FB0404",
"t+	c #FE2626",
"u+	c #FF4A4A",
"v+	c #FF6161",
"w+	c #FF7272",
"x+	c #FE7C7B",
"y+	c #FB7777",
"z+	c #F45F60",
"A+	c #EA3D3D",
"B+	c #E51F1F",
"C+	c #E80C0D",
"D+	c #F00303",
"E+	c #FF0809",
"F+	c #FF2323",
"G+	c #FF4444",
"H+	c #FF5959",
"I+	c #FE6868",
"J+	c #FB7071",
"K+	c #F36C6D",
"L+	c #E75757",
"M+	c #DE3B3B",
"N+	c #F20201",
"O+	c #FA0606",
"P+	c #FE2F2F",
"Q+	c #FF5252",
"R+	c #FF6766",
"S+	c #FF7474",
"T+	c #F86C6D",
"U+	c #EE504F",
"V+	c #E83131",
"W+	c #E51A1A",
"X+	c #E80A0B",
"Y+	c #FE0B0B",
"Z+	c #FF2D2D",
"`+	c #FF4F50",
" @	c #FD6B6B",
".@	c #FC6F71",
"+@	c #F06867",
"@@	c #E34F50",
"#@	c #DD3232",
". . . . . . . . . . . . . . . . . . . . . . . . . . . ",
". + @ # $ % $ $ $ & & * = - ; > , ' ) $ $ $ $ $ $ ! . ",
". + ~ { $ ] $ $ $ $ $ ^ / ( ; ~ , ^ $ $ $ $ $ $ $ _ . ",
". + : < $ ^ $ $ $ $ $ [ } | 1 2 # ^ $ $ $ $ $ $ 3 4 . ",
". ; 4 % ) ) $ $ $ $ $ % : 5 5 } 6 ) $ $ $ $ $ $ ^ : . ",
". ; / ] ^ $ $ $ $ $ $ < ~ 1 5 4 { ) $ $ $ $ $ $ ] @ . ",
". 7 8 9 0 a b c d e f g h i j k l m n o p q r s t u . ",
". v w x y z A B C D E F G H I 8 J m K L M N O P Q R . ",
". S T U V W X Y Z D `  ...+.@.w #.m $.%.&.*.=.-.;.>.. ",
". ,.'.m ).!.~.{.].E ^./.(._.:.<.9 U [.}.|.1.2.3.4.5.. ",
". 6.7.U 8.9.0.a.b.c.d.e.f._.g.h.9 i.j.W k.c l.m.n.o.. ",
". p.q.m r.s.t.u.v.w.x.y.z.A.p.T x B.C.D.E.F.G.H.I.J.. ",
". K.L.M.N.O.P.Q.R.S.T.U.V.W.K.X.Y.Z.`. +.+++@+#+$+%+. ",
". &+*+=+-+;+>+,+'+)+!+~+{+]+^+/+(+_+:+<+[+}+|+1+2+3+. ",
". 4+*+5+6+7+8+9+0+a+b+c+d+e+f+L.g+h+i+j+k+l+m+n+o+p+. ",
". q+r+s+t+u+v+w+x+y+z+A+B+C+D+r+(+E+F+G+H+I+J+K+L+M+. ",
". N+M.O+P+Q+R+S+S.T+U+V+W+X+q+*+(+Y+Z+`+v+ @.@+@@@#@. ",
". . . . . . . . . . . . . . . . . . . . . . . . . . . "};
