/* XPM */
static char * Ukrainian_xpm[] = {
"27 18 321 2",
"  	c None",
". 	c #000000",
"+ 	c #4977B4",
"@ 	c #3B6FB4",
"# 	c #3871BD",
"$ 	c #3A75C4",
"% 	c #3F77C2",
"& 	c #6190CF",
"* 	c #77A0D6",
"= 	c #88ACDB",
"- 	c #95B4DF",
"; 	c #9CB9E1",
"> 	c #98B5DF",
", 	c #789CCB",
"' 	c #5882BB",
") 	c #4674B3",
"! 	c #3870BB",
"~ 	c #3973C1",
"{ 	c #3B76C4",
"] 	c #447CC7",
"^ 	c #598BCD",
"/ 	c #709BD4",
"( 	c #81A6D9",
"_ 	c #8EAFDD",
": 	c #98B7E0",
"< 	c #91ADD5",
"[ 	c #4775B3",
"} 	c #3A6EB5",
"| 	c #3871BE",
"1 	c #437AC4",
"2 	c #6593D0",
"3 	c #7AA1D7",
"4 	c #8AADDC",
"5 	c #96B5DF",
"6 	c #9CBAE1",
"7 	c #98B6DF",
"8 	c #789BCB",
"9 	c #5580B9",
"0 	c #4172B2",
"a 	c #396EB5",
"b 	c #3974C2",
"c 	c #477EC7",
"d 	c #5C8DCE",
"e 	c #729CD4",
"f 	c #82A7D9",
"g 	c #8FB1DD",
"h 	c #99B8E0",
"i 	c #8EACD3",
"j 	c #4473B2",
"k 	c #396EB6",
"l 	c #3872BF",
"m 	c #477DC6",
"n 	c #6996D2",
"o 	c #7CA3D7",
"p 	c #8BAEDC",
"q 	c #97B6DF",
"r 	c #95B3DD",
"s 	c #7397C8",
"t 	c #527DB9",
"u 	c #4071B2",
"v 	c #3871BC",
"w 	c #497FC8",
"x 	c #5F8FCF",
"y 	c #749ED5",
"z 	c #84A8DA",
"A 	c #91B2DE",
"B 	c #9AB8E0",
"C 	c #8CA9D0",
"D 	c #4272B2",
"E 	c #396FB7",
"F 	c #3972C0",
"G 	c #3974C3",
"H 	c #4D82C9",
"I 	c #6C98D3",
"J 	c #7EA5D8",
"K 	c #99B7E0",
"L 	c #9DBAE1",
"M 	c #92B1DB",
"N 	c #6F94C6",
"O 	c #4E7BB7",
"P 	c #3F70B2",
"Q 	c #386EB6",
"R 	c #3C76C4",
"S 	c #4B81C9",
"T 	c #6291D0",
"U 	c #769FD6",
"V 	c #86AADA",
"W 	c #92B3DE",
"X 	c #99B7DF",
"Y 	c #89A6CE",
"Z 	c #386FB8",
"` 	c #5185CA",
" .	c #6F9AD3",
"..	c #8DADD8",
"+.	c #6A90C3",
"@.	c #4C79B6",
"#.	c #3D6FB2",
"$.	c #386EB7",
"%.	c #3D77C5",
"&.	c #4E83CA",
"*.	c #6693D1",
"=.	c #78A0D6",
"-.	c #88ABDB",
";.	c #94B4DF",
">.	c #97B5DD",
",.	c #85A3CA",
"'.	c #3E70B2",
").	c #386FB9",
"!.	c #3A74C1",
"~.	c #5487CB",
"{.	c #719BD4",
"].	c #89AAD6",
"^.	c #668DC1",
"/.	c #4977B5",
"(.	c #3C6FB3",
"_.	c #3F78C5",
":.	c #7AA2D7",
"<.	c #89ACDB",
"[.	c #97B4DB",
"}.	c #819FC7",
"|.	c #3D6FB3",
"1.	c #3870BA",
"2.	c #3B74C1",
"3.	c #588ACD",
"4.	c #739DD5",
"5.	c #84A9DA",
"6.	c #9BB9E1",
"7.	c #85A7D3",
"8.	c #628ABF",
"9.	c #4876B4",
"0.	c #3B6FB3",
"a.	c #3872C0",
"b.	c #4079C6",
"c.	c #5386CB",
"d.	c #7DA4D8",
"e.	c #8BADDC",
"f.	c #95B2DA",
"g.	c #7D9CC4",
"h.	c #3870BC",
"i.	c #3C75C1",
"j.	c #759ED5",
"k.	c #93B3DE",
"l.	c #9AB8DF",
"m.	c #81A2D0",
"n.	c #5D87BD",
"o.	c #4675B3",
"p.	c #3B6EB4",
"q.	c #386FBA",
"r.	c #427AC6",
"s.	c #5689CC",
"t.	c #6E99D3",
"u.	c #8CAEDC",
"v.	c #92B0D7",
"w.	c #7898C2",
"x.	c #E3CA1B",
"y.	c #F0D516",
"z.	c #F9DD16",
"A.	c #F5DA1D",
"B.	c #FAE344",
"C.	c #FAE75F",
"D.	c #FBEA73",
"E.	c #FBEC80",
"F.	c #FBED8A",
"G.	c #F9EB85",
"H.	c #EDDC66",
"I.	c #E2CE42",
"J.	c #DFC827",
"K.	c #E3CA1A",
"L.	c #ECD216",
"M.	c #F6DA15",
"N.	c #F8DD16",
"O.	c #F9DE22",
"P.	c #F9E23B",
"Q.	c #FAE656",
"R.	c #FBE96A",
"S.	c #FBEB79",
"T.	c #FBEC84",
"U.	c #EFE17E",
"V.	c #DCCD60",
"W.	c #E4CB1A",
"X.	c #F0D515",
"Y.	c #F6DB21",
"Z.	c #FAE449",
"`.	c #FAE861",
" +	c #FBEA75",
".+	c #FBEC82",
"++	c #FBED89",
"@+	c #F8E87F",
"#+	c #ECDA62",
"$+	c #E2CE3E",
"%+	c #DFC826",
"&+	c #E5CC1A",
"*+	c #EDD316",
"=+	c #F9DD17",
"-+	c #F9DF25",
";+	c #FAE33F",
">+	c #FAE658",
",+	c #FBE96B",
"'+	c #FBEB7A",
")+	c #F9EC83",
"!+	c #ECDE79",
"~+	c #DBCB5A",
"{+	c #F2D715",
"]+	c #F7DD27",
"^+	c #FAE54D",
"/+	c #FBE864",
"(+	c #FBEB76",
"_+	c #FBED83",
":+	c #FAEC86",
"<+	c #F6E67B",
"[+	c #EAD85E",
"}+	c #E2CD3C",
"|+	c #DFC926",
"1+	c #E6CC1A",
"2+	c #EFD415",
"3+	c #F7DB15",
"4+	c #F9DF28",
"5+	c #FAE342",
"6+	c #FAE75B",
"7+	c #FBE96D",
"8+	c #FBEB7C",
"9+	c #F7E982",
"0+	c #E9DB74",
"a+	c #DCCC57",
"b+	c #E7CE19",
"c+	c #F6DA16",
"d+	c #F9DF2C",
"e+	c #FAE551",
"f+	c #FBE866",
"g+	c #FBEB77",
"h+	c #FBED84",
"i+	c #FAEB85",
"j+	c #F4E476",
"k+	c #EAD759",
"l+	c #E2CD39",
"m+	c #E1C924",
"n+	c #F9DD19",
"o+	c #F9E02B",
"p+	c #FAE446",
"q+	c #FAE75D",
"r+	c #FBEA6F",
"s+	c #F5E77E",
"t+	c #E8D96F",
"u+	c #DCCC54",
"v+	c #E9CF18",
"w+	c #F3D816",
"x+	c #F9E031",
"y+	c #FAE553",
"z+	c #FAEB83",
"A+	c #F3E273",
"B+	c #E8D655",
"C+	c #E1CC36",
"D+	c #E2CA22",
"E+	c #F1D616",
"F+	c #F8DC16",
"G+	c #F9DD1A",
"H+	c #F9E02D",
"I+	c #FAE44A",
"J+	c #FBEA71",
"K+	c #F9EA7C",
"L+	c #F4E47B",
"M+	c #E7D76A",
"N+	c #DCCC51",
"O+	c #EAD017",
"P+	c #F5DA18",
"Q+	c #F9E134",
"R+	c #FBEB7B",
"S+	c #F9EB82",
"T+	c #F2E170",
"U+	c #E7D450",
"V+	c #E1CC34",
"W+	c #E2CA21",
"X+	c #E9D018",
"Y+	c #F9DD1C",
"Z+	c #F9E131",
"`+	c #FAE862",
" @	c #F1E379",
".@	c #E6D666",
"+@	c #DBCB4D",
"@@	c #F4D916",
"#@	c #F5DA19",
"$@	c #F9E239",
"%@	c #FAE659",
"&@	c #FBE96E",
"*@	c #FBEC7E",
"=@	c #FBED86",
"-@	c #F8EA83",
";@	c #F0DF6C",
">@	c #E6D34C",
",@	c #E1CB31",
"'@	c #E2CA20",
")@	c #F4D815",
"!@	c #F9DE1E",
"~@	c #F9E135",
"{@	c #FAE654",
"]@	c #FBE867",
"^@	c #FAEA75",
"/@	c #F8E97D",
"(@	c #F0E178",
"_@	c #E4D464",
":@	c #DBC849",
"<@	c #EDD216",
"[@	c #F4DA1B",
"}@	c #F9E341",
"|@	c #FAE760",
"1@	c #FBEC7F",
"2@	c #FAEC85",
"3@	c #F5E679",
"4@	c #EBDA5D",
"5@	c #E4D041",
"6@	c #E0CA2C",
"7@	c #E3CB1E",
"8@	c #EBD117",
"9@	c #F3D815",
"0@	c #F9DE20",
"a@	c #FBE96F",
"b@	c #F9EA77",
"c@	c #F9E77D",
"d@	c #ECDF73",
"e@	c #E0D05D",
"f@	c #D9C640",
". . . . . . . . . . . . . . . . . . . . . . . . . . . ",
". + @ # $ % & * = - ; > , ' ) @ ! ~ { ] ^ / ( _ : < . ",
". [ } | $ 1 2 3 4 5 6 7 8 9 0 a ! b $ c d e f g h i . ",
". j k l $ m n o p q 6 r s t u a v b { w x y z A B C . ",
". D E F G H I J _ K L M N O P Q # G R S T U V W X Y . ",
". u Z ~ b `  .( g h L ..+.@.#.$.| G %.&.*.=.-.;.>.,.. ",
". '.).~ !.~.{.f A B 6 ].^./.(.Z l $ _.` n :.<.- [.}.. ",
". |.1.b 2.3.4.5.W 6.; 7.8.9.0.).a.$ b.c.I d.e.5 f.g.. ",
". (.h.G i.d j.V k.6.l.m.n.o.p.q.~ $ r.s.t.J u.q v.w.. ",
". x.y.z.A.B.C.D.E.F.G.H.I.J.K.L.M.N.O.P.Q.R.S.T.U.V.. ",
". W.X.z.Y.Z.`. +.+++@+#+$+%+&+*+M.=+-+;+>+,+'+)+!+~+. ",
". &+{+z.]+^+/+(+_+:+<+[+}+|+1+2+3+=+4+5+6+7+8+9+0+a+. ",
". b+{+c+d+e+f+g+h+i+j+k+l+m+b+y.3+n+o+p+q+r+8+s+t+u+. ",
". v+w+c+x+y+R.S.h+z+A+B+C+D+b+E+F+G+H+I+C.J+K+L+M+N+. ",
". O+w+P+Q+Q.,+R+h+S+T+U+V+W+X+{+z.Y+Z+^+`+D.K+ @.@+@. ",
". O+@@#@$@%@&@*@=@-@;@>@,@'@O+)@N.!@~@{@]@^@/@(@_@:@. ",
". <@c+[@}@|@D.1@2@3@4@5@6@7@8@9@N.0@;+C.a@b@c@d@e@f@. ",
". . . . . . . . . . . . . . . . . . . . . . . . . . . "};
